<svg enable-background="new 0 0 1094 800" height="100" viewBox="0 0 100 100" width="100" xmlns="http://www.w3.org/2000/svg"><g fill="#0ff"><path clip-rule="evenodd" d="m58.377088 70.69407c-.03881 5.331589-.989668 16.001005.291078 20.374114.616809 2.106162 2.414566 2.589906 2.619707 5.239415-.365927.189201-.602948.317414-.873235.582157-10.626448-2.171307-8.309601-14.676598-8.149508-27.068922-.485131 0-.970261 0-1.455393 0 .185043 10.753274 3.045236 26.885959-8.731665 26.777843-.183655-.510773-.05614-.282761-.291078-.582157.544733-1.883694 2.106161-2.621786 2.619707-4.657257.09703-6.984499.194053-13.971773.291079-20.956271-.09703 0-.194052 0-.291079 0-2.036164 3.335621-1.399256 9.919542-1.746471 14.844313-.05267.749182.372165 3.872732-.291079 4.948336-1.01323 3.055633-5.574155 4.636466-9.604901 3.784022-.09703-.291079-.194051-.582157-.291078-.873236 5.496534-3.504724 4.785472-7.203502 4.657257-16.008628-.194051 0-.388104 0-.582157 0-1.244707.795614-4.862397.574533-6.111956.291079-2.000126-.453945-3.327306-.150392-4.948336-.873236-4.578251-2.042402-5.086945-6.919355-7.858428-10.769215-1.374314-1.908644-4.913686-2.732673-5.239414-5.5298h.582157c5.226943-3.432648 10.401206 7.229837 13.097842 9.022743 3.104837 2.064579 8.148814.724232 11.351371 0 .96957-2.966923 1.714591-5.178427 4.0751-6.694115-.297316-.234248-.0797-.103257-.582157-.291078-1.422819-.857296-3.788873-.387412-5.529799-.873236-3.779864-1.05412-7.784967-2.375756-10.769215-4.366179-9.759442-6.508379-14.390371-28.55065-4.0751-38.129215-.45117-4.515876-2.885842-15.7868552 3.492943-15.7175509 1.93983.5821571 3.881047 1.1643143 5.820878 1.7464715 2.658518 1.1546129 4.83745 3.8283774 7.858428 4.3661788 2.240613-1.5544972 14.714717-2.7104958 19.209801-1.7464715 1.360446.2917714 6.619267 1.5600429 7.858429 1.1643143.747102-.2384071 1.671623-1.3465843 2.328629-1.7464715 3.285722-1.9987387 7.951989-4.2310345 12.515707-3.7840216.478892 1.9058715 1.248865 4.1284645 1.746471 6.403036.589087 2.6924779-1.49559 6.1916579-.291079 8.1495079.433153 1.221837 1.387475 1.693107 2.037551 2.619707 1.241934 1.770728 2.49981 4.267766 3.201864 6.403037 3.786793 11.517702-1.345199 26.220635-7.858429 30.561171-3.011297 2.007056-7.140456 3.045929-11.060313 4.0751-1.659842.435925-4.964969-.08038-5.820879 1.164315 5.744643 2.063886 4.656564 12.826862 4.657257 20.665192v5.529801c.749874 2.305758 3.829762 2.52476 4.366179 4.948335-.291079.09703-.582157.194053-.873236.291079-2.505354 1.74162-7.914565-1.571824-8.440586-3.201864-1.168473-1.329952-.873236-4.191532-.873236-6.694115 0-4.806955.307712-10.132999-1.164314-13.388921-.293157.000693-.584236.000693-.875314.000693z" fill-rule="evenodd" stroke-width=".693044"/><path d="m0 0h100v100h-100z" opacity="0"/></g></svg>