<svg enable-background="new 0 0 1094 800" viewBox="0 0 100 100" xmlns="http://www.w3.org/2000/svg"><g fill="#0ff"><path d="m0 0h100v100h-100z" opacity="0"/><path clip-rule="evenodd" d="m1002.524 610.833c-1.774-.08-.901-.438-1.858 0h-89.788c-10.13 0-32.288-1.999-40.25.619.083 32.698 1.822 61.172 1.858 92.265h129.419c-.08-3.053-.66-8.576.619-10.527zm-115.795 7.431h97.219c-6.063 12.639-23.319 27.033-34.058 37.773-3.844 3.845-8.234 11.099-13.623 13.004-16.511-16.511-33.027-33.027-49.538-49.538zm-4.954 69.972c-2.032-.445-1.443-.633-3.096-1.238v-60.065c4.189 1.498 6.975 6.356 9.908 9.288 7.18 7.18 14.424 13.902 21.054 21.673-1.729 8.368-22.517 22.332-27.866 30.342zm102.792 9.289h-73.069c-8.979-.001-22.143 1.578-24.769-3.096 9.7-9.907 19.403-19.816 29.104-29.723l18.577 18.577c7.113-2.568 13.418-13.699 19.815-17.958.206-.206.413-.413.619-.619 10.113 10.319 20.229 20.642 30.342 30.961-.207.619-.413 1.239-.619 1.858zm8.669-9.289-.619.619-19.815-19.815c-3.106-4.112-6.905-9.504-11.146-12.385 1.22-3.383 4.492-5.111 6.812-7.431 7.636-7.843 15.275-15.688 22.911-23.531h1.238c-.582 2.145.511 3.157.619 6.192.206 10.526.413 21.055.619 31.581-.001 4.227-1.204 12.528.619 15.481.13 3.368.53 7.725-1.238 9.289z" fill-rule="evenodd" transform="matrix(.71427583 0 0 .71427583 -618.9736 -419.21494)"/></g></svg>