<?xml version="1.0" encoding="UTF-8" standalone="no"?>
<!-- Created by AtomCrusher for the English Wikipedia -->

<svg
   version="1.1"
   width="500"
   height="500"
   id="svg6"
   xmlns="http://www.w3.org/2000/svg"
   xmlns:svg="http://www.w3.org/2000/svg">
  <defs
     id="defs10" />
  <path
     id="path2"
     style="color:#000000;fill:#ffffff;stroke-width:0.816993;-inkscape-stroke:none"
     d="M 0,0 V 500 H 500 V 0 H 307.18955 v 2.6967167 c 0,31.6666673 -25.66988,57.3283683 -57.32837,57.3283683 -31.66667,0 -57.32837,-25.669871 -57.32837,-57.3283683 V 0 Z m 38.679534,340.32885 h 47.494127 c 13.503905,0 23.762329,3.87903 30.772899,11.63896 1.33514,1.46906 2.52279,3.02794 3.56317,4.67696 l -13.65432,42.0672 -4.886,15.05054 c -4.468788,1.27737 -9.564303,1.91643 -15.286722,1.91643 H 67.79131 v 39.38802 H 38.679534 Z m 134.965096,0 h 23.57472 l 22.50243,74.14534 31.64573,-74.14534 h 30.66917 l -46.26066,114.73811 h -30.26227 l -20.81737,-66.49402 -21.83543,66.49402 h -30.18249 l -15.6569,-26.87142 15.42075,-47.5069 17.04037,33.78555 z m 126.56696,0 43.21449,114.73811 43.21289,-114.73811 15.08725,38.15454 -12.06341,33.7696 h 25.41934 l -12.06342,-33.7696 15.08884,-38.15454 43.21289,114.73811 h -31.86912 l -7.38326,-20.55089 h 1.81909 l -40.92148,-0.16755 -7.67208,20.71844 h -31.86753 -31.86913 l -7.38485,-20.55089 h -41.20712 l 8.80343,-22.26308 h 25.41935 l -12.06342,-33.7696 z M 67.79131,362.59033 v 30.82554 h 10.917713 c 7.081909,0 11.94302,-1.51669 14.583012,-4.54931 2.408153,-2.72929 3.612647,-6.42149 3.612647,-11.07729 0,-4.62038 -1.368962,-8.30853 -4.107312,-11.06452 -2.738186,-2.75614 -7.408276,-4.13442 -14.008562,-4.13442 z" />
  <!-- Block -->
  <!-- Letters -->
</svg>
