<svg height="100pt" viewBox="0 0 121 100" width="121pt" xmlns="http://www.w3.org/2000/svg"><path d="m108.058594 25.175781c.070312 1.0625.070312 2.128907.070312 3.203125 0 32.757813-24.730468 70.53125-69.953125 70.53125v-.023437c-13.363281.023437-26.441406-3.835938-37.6875-11.109375 1.941407.234375 3.894531.355468 5.851563.359375 11.070312.007812 21.824218-3.738281 30.535156-10.632813-10.519531-.203125-19.746094-7.117187-22.96875-17.214844 3.683594.71875 7.484375.570313 11.097656-.425781-11.46875-2.339843-19.722656-12.496093-19.722656-24.296875 0-.109375 0-.210937 0-.316406 3.417969 1.921875 7.246094 2.988281 11.160156 3.105469-10.804687-7.28125-14.132812-21.769531-7.609375-33.097657 12.484375 15.484376 30.898438 24.898438 50.671875 25.894532-1.980468-8.605469.722656-17.628906 7.113282-23.683594 9.902343-9.382812 25.476562-8.902344 34.785156 1.078125 5.503906-1.09375 10.785156-3.132813 15.613281-6.019531-1.835937 5.738281-5.675781 10.613281-10.808594 13.707031 4.875-.574219 9.632813-1.894531 14.121094-3.898437-3.300781 4.988281-7.460937 9.328124-12.269531 12.839843zm0 0" fill="#0ff"/></svg>