<?xml version="1.0" encoding="UTF-8" standalone="no"?>
<svg
   version="1.1"
   x="0px"
   y="0px"
   viewBox="0 0 100 99.999997"
   enable-background="new 0 0 65 65"
   xml:space="preserve"
   id="svg3800"
   sodipodi:docname="Noun_Project_Community_icon_986471.svg"
   width="100"
   height="100"
   inkscape:version="1.1 (1:1.1+202105261517+ce6663b3b7)"
   xmlns:inkscape="http://www.inkscape.org/namespaces/inkscape"
   xmlns:sodipodi="http://sodipodi.sourceforge.net/DTD/sodipodi-0.dtd"
   xmlns:xlink="http://www.w3.org/1999/xlink"
   xmlns="http://www.w3.org/2000/svg"
   xmlns:svg="http://www.w3.org/2000/svg"
   xmlns:rdf="http://www.w3.org/1999/02/22-rdf-syntax-ns#"
   xmlns:cc="http://creativecommons.org/ns#"
   xmlns:dc="http://purl.org/dc/elements/1.1/"><metadata
     id="metadata3806"><rdf:RDF><cc:Work
         rdf:about=""><dc:format>image/svg+xml</dc:format><dc:type
           rdf:resource="http://purl.org/dc/dcmitype/StillImage" /></cc:Work></rdf:RDF></metadata><defs
     id="defs3804"><linearGradient
       id="linearGradient14974"
       y2="990.12"
       xlink:href="#a"
       gradientUnits="userSpaceOnUse"
       x2="1140.2"
       y1="884.32001"
       x1="990.09003"
       gradientTransform="matrix(1,0,0,0.99999532,234.29107,25.915879)" /><linearGradient
       id="linearGradient14972"
       y2="673.20001"
       xlink:href="#a"
       gradientUnits="userSpaceOnUse"
       x2="-330.07001"
       y1="673.20001"
       x1="-418.64001"
       gradientTransform="matrix(1.000004,0,0,1,-244.61987,135.26745)" /><linearGradient
       id="linearGradient14970"
       y2="508.07999"
       xlink:href="#a"
       gradientUnits="userSpaceOnUse"
       x2="286.23001"
       y1="508.07999"
       x1="146.63"
       gradientTransform="translate(211.8473,12.958)" /><linearGradient
       id="linearGradient13253"
       y2="602.71997"
       xlink:href="#a"
       gradientUnits="userSpaceOnUse"
       x2="475.70999"
       y1="602.71997"
       x1="181.42999"
       gradientTransform="matrix(0.70079,0,0,1.303,259.6833,-620.032)" /><linearGradient
       id="linearGradient13251"
       y2="737.02002"
       xlink:href="#a"
       gradientUnits="userSpaceOnUse"
       x2="470"
       gradientTransform="matrix(0.70079,0,0,0.58714,263.6833,-227.512)"
       y1="737.02002"
       x1="175.72" /><filter
       id="filter14335"
       y="-0.70286"
       width="1.2491"
       x="-0.12454"
       height="2.4057"><feGaussianBlur
         id="feGaussianBlur14337"
         stdDeviation="15.270363" /></filter><linearGradient
       id="linearGradient12828"><stop
         id="stop12830"
         style="stop-color:#484849"
         offset="0" /><stop
         id="stop12862"
         style="stop-color:#434344"
         offset="0" /><stop
         id="stop12832"
         style="stop-color:#8f8f90;stop-opacity:0"
         offset="1" /></linearGradient><radialGradient
       id="radialGradient13249"
       xlink:href="#linearGradient12828"
       gradientUnits="userSpaceOnUse"
       cy="602.71997"
       cx="328.57001"
       gradientTransform="matrix(1,0,0,0.17718,0,495.93)"
       r="147.14" /><linearGradient
       id="linearGradient747"><stop
         id="stop748"
         style="stop-color:#caf0fd"
         offset="0" /><stop
         id="stop749"
         style="stop-color:#005eff"
         offset="1" /></linearGradient><filter
       id="filter14223"
       y="-0.66248"
       width="1.2929"
       x="-0.14647"
       height="2.325"><feGaussianBlur
         id="feGaussianBlur14225"
         stdDeviation="11.044599" /></filter><linearGradient
       xlink:href="#a"
       id="linearGradient887"
       gradientUnits="userSpaceOnUse"
       gradientTransform="matrix(0.70079,0,0,0.58714,-27.7427,-227.512)"
       x1="175.72"
       y1="737.02002"
       x2="470"
       y2="737.02002" /><linearGradient
       xlink:href="#a"
       id="linearGradient889"
       gradientUnits="userSpaceOnUse"
       x1="181.42999"
       y1="602.71997"
       x2="475.70999"
       y2="602.71997"
       gradientTransform="matrix(0.70079,0,0,1.303,-31.7427,-620.032)" /><linearGradient
       xlink:href="#a"
       id="linearGradient891"
       gradientUnits="userSpaceOnUse"
       x1="146.63"
       y1="508.07999"
       x2="286.23001"
       y2="508.07999"
       gradientTransform="translate(-79.5787,12.958)" /><linearGradient
       xlink:href="#a"
       id="linearGradient893"
       gradientUnits="userSpaceOnUse"
       x1="-418.64001"
       y1="673.20001"
       x2="-330.07001"
       y2="673.20001"
       gradientTransform="matrix(1.000004,0,0,1,91.889446,-32.98654)" /><linearGradient
       xlink:href="#a"
       id="linearGradient895"
       gradientUnits="userSpaceOnUse"
       x1="990.09003"
       y1="884.32001"
       x2="1140.2"
       y2="990.12"
       gradientTransform="matrix(1,0,0,0.99999532,-57.134926,25.915879)" /><linearGradient
       id="a"
       gradientTransform="matrix(0.57284547,0,0,0.67718004,1684.6821,-384.4171)"
       gradientUnits="userSpaceOnUse"
       x1="-1629.9066"
       x2="329.64392"
       y1="511.1134"
       y2="1683.181"><stop
         offset="0"
         stop-color="#4f0754"
         id="stop2" /><stop
         offset=".06853585"
         stop-color="#360640"
         id="stop4" /><stop
         offset=".17678614"
         stop-color="#2a0635"
         id="stop6" /><stop
         offset=".43467355"
         stop-color="#20062d"
         id="stop8" /><stop
         offset=".64409029"
         stop-color="#130522"
         id="stop10" /><stop
         offset=".84094781"
         stop-color="#130522"
         id="stop12" /><stop
         offset="1"
         stop-color="#130522"
         id="stop14" /></linearGradient><linearGradient
       xlink:href="#a"
       id="linearGradient1684"
       x1="120.07502"
       y1="477.29724"
       x2="143.4082"
       y2="477.29724"
       gradientUnits="userSpaceOnUse" /><linearGradient
       xlink:href="#a"
       id="linearGradient1688"
       x1="104.60754"
       y1="532.13751"
       x2="151.49446"
       y2="532.13751"
       gradientUnits="userSpaceOnUse" /><linearGradient
       xlink:href="#a"
       id="linearGradient1690"
       x1="437.06299"
       y1="487.15302"
       x2="591.242"
       y2="487.15302"
       gradientUnits="userSpaceOnUse" /><linearGradient
       xlink:href="#a"
       id="linearGradient1692"
       x1="460.58911"
       y1="239.77318"
       x2="484.69922"
       y2="239.77318"
       gradientUnits="userSpaceOnUse" /><linearGradient
       xlink:href="#a"
       id="linearGradient1694"
       x1="544.07532"
       y1="229.96252"
       x2="567.41168"
       y2="229.96252"
       gradientUnits="userSpaceOnUse" /><linearGradient
       xlink:href="#a"
       id="linearGradient1696"
       x1="480.26712"
       y1="192.90948"
       x2="540.74982"
       y2="192.90948"
       gradientUnits="userSpaceOnUse" /><linearGradient
       xlink:href="#a"
       id="linearGradient1698"
       x1="339.97501"
       y1="77.09301"
       x2="489.181"
       y2="77.09301"
       gradientUnits="userSpaceOnUse" /><linearGradient
       xlink:href="#a"
       id="linearGradient1702"
       x1="131.12659"
       y1="48.035522"
       x2="154.4604"
       y2="48.035522"
       gradientUnits="userSpaceOnUse" /><linearGradient
       xlink:href="#a"
       id="linearGradient1704"
       x1="126.36338"
       y1="99.731468"
       x2="171.743"
       y2="99.731468"
       gradientUnits="userSpaceOnUse" /><linearGradient
       xlink:href="#a"
       id="linearGradient1712"
       x1="439.54599"
       y1="487.15399"
       x2="588.75201"
       y2="487.15399"
       gradientUnits="userSpaceOnUse" /><linearGradient
       xlink:href="#a"
       id="linearGradient1720"
       x1="23.644501"
       y1="454.37399"
       x2="106.593"
       y2="454.37399"
       gradientUnits="userSpaceOnUse" /><linearGradient
       xlink:href="#a"
       id="linearGradient1736"
       x1="24.980499"
       y1="454.37451"
       x2="105.253"
       y2="454.37451"
       gradientUnits="userSpaceOnUse" /><linearGradient
       xlink:href="#a"
       id="linearGradient1744"
       x1="105.36459"
       y1="532.13947"
       x2="150.7384"
       y2="532.13947"
       gradientUnits="userSpaceOnUse" /><linearGradient
       xlink:href="#a"
       id="linearGradient1760"
       x1="119.69061"
       y1="477.2962"
       x2="143.79121"
       y2="477.2962"
       gradientUnits="userSpaceOnUse" /><linearGradient
       xlink:href="#a"
       id="linearGradient1786"
       x1="92.222298"
       y1="264.45551"
       x2="333.48199"
       y2="264.45551"
       gradientUnits="userSpaceOnUse" /><linearGradient
       xlink:href="#a"
       id="linearGradient1794"
       x1="88.207802"
       y1="264.45401"
       x2="337.51001"
       y2="264.45401"
       gradientUnits="userSpaceOnUse" /><linearGradient
       xlink:href="#a"
       id="linearGradient1802"
       x1="134.31393"
       y1="359.74799"
       x2="465.09506"
       y2="359.74799"
       gradientUnits="userSpaceOnUse" /><linearGradient
       xlink:href="#a"
       id="linearGradient1804"
       x1="131.16345"
       y1="299.47351"
       x2="149.46255"
       y2="299.47351"
       gradientUnits="userSpaceOnUse" /><linearGradient
       xlink:href="#a"
       id="linearGradient1806"
       x1="79.290436"
       y1="474.25101"
       x2="486.35538"
       y2="474.25101"
       gradientUnits="userSpaceOnUse" /><linearGradient
       xlink:href="#a"
       id="linearGradient1816"
       x1="131.25233"
       y1="498.79953"
       x2="136.42467"
       y2="498.79953"
       gradientUnits="userSpaceOnUse" /><linearGradient
       xlink:href="#a"
       id="linearGradient1834"
       x1="81.571152"
       y1="500.57953"
       x2="119.03265"
       y2="500.57953"
       gradientUnits="userSpaceOnUse" /><linearGradient
       xlink:href="#a"
       id="linearGradient1844"
       x1="83.7789"
       y1="399.73151"
       x2="155.17599"
       y2="399.73151"
       gradientUnits="userSpaceOnUse" /><linearGradient
       xlink:href="#a"
       id="linearGradient1852"
       x1="56.840694"
       y1="276.353"
       x2="60.436207"
       y2="276.353"
       gradientUnits="userSpaceOnUse" /><linearGradient
       xlink:href="#a"
       id="linearGradient1860"
       x1="206.873"
       y1="248.35945"
       x2="471.513"
       y2="248.35945"
       gradientUnits="userSpaceOnUse" /><linearGradient
       xlink:href="#a"
       id="linearGradient1862"
       x1="450.961"
       y1="151.24899"
       x2="500.70999"
       y2="151.24899"
       gradientUnits="userSpaceOnUse" /><linearGradient
       xlink:href="#a"
       id="linearGradient1870"
       x1="88.1035"
       y1="148.0235"
       x2="141.72301"
       y2="148.0235"
       gradientUnits="userSpaceOnUse" /><linearGradient
       xlink:href="#a"
       id="linearGradient1878"
       x1="24.090885"
       y1="107.65263"
       x2="104.36789"
       y2="107.65263"
       gradientUnits="userSpaceOnUse" /><linearGradient
       xlink:href="#a"
       id="linearGradient1886"
       x1="80.929298"
       y1="106.383"
       x2="131.909"
       y2="106.383"
       gradientUnits="userSpaceOnUse" /><linearGradient
       xlink:href="#a"
       id="linearGradient1894"
       x1="142.36099"
       y1="69.534554"
       x2="147.42101"
       y2="69.534554"
       gradientUnits="userSpaceOnUse" /><linearGradient
       xlink:href="#a"
       id="linearGradient1902"
       x1="125.61664"
       y1="99.731468"
       x2="172.49005"
       y2="99.731468"
       gradientUnits="userSpaceOnUse" /><linearGradient
       xlink:href="#a"
       id="linearGradient1910"
       x1="158.38136"
       y1="142.1469"
       x2="501.08163"
       y2="142.1469"
       gradientUnits="userSpaceOnUse" /><linearGradient
       xlink:href="#a"
       id="linearGradient1918"
       x1="154.76781"
       y1="83.755402"
       x2="354.83218"
       y2="83.755402"
       gradientUnits="userSpaceOnUse" /><linearGradient
       xlink:href="#a"
       id="linearGradient1926"
       x1="142.50291"
       y1="143.9046"
       x2="472.9361"
       y2="143.9046"
       gradientUnits="userSpaceOnUse" /><linearGradient
       xlink:href="#a"
       id="linearGradient1934"
       x1="412.01529"
       y1="282.659"
       x2="481.98773"
       y2="282.659"
       gradientUnits="userSpaceOnUse" /><linearGradient
       xlink:href="#a"
       id="linearGradient1942"
       x1="337.492"
       y1="77.092003"
       x2="491.67001"
       y2="77.092003"
       gradientUnits="userSpaceOnUse" /><linearGradient
       xlink:href="#a"
       id="linearGradient1950"
       x1="479.25708"
       y1="192.908"
       x2="541.75598"
       y2="192.908"
       gradientUnits="userSpaceOnUse" /><linearGradient
       xlink:href="#a"
       id="linearGradient1958"
       x1="460.9794"
       y1="239.77399"
       x2="484.31042"
       y2="239.77399"
       gradientUnits="userSpaceOnUse" /><linearGradient
       xlink:href="#a"
       id="linearGradient1966"
       x1="128.03438"
       y1="527.25848"
       x2="468.03561"
       y2="527.25848"
       gradientUnits="userSpaceOnUse" /></defs><sodipodi:namedview
     pagecolor="#ffffff"
     bordercolor="#666666"
     borderopacity="1"
     objecttolerance="10"
     gridtolerance="10"
     guidetolerance="10"
     inkscape:pageopacity="0"
     inkscape:pageshadow="2"
     inkscape:window-width="1366"
     inkscape:window-height="722"
     id="namedview3802"
     showgrid="false"
     inkscape:zoom="2.2831194"
     inkscape:cx="102.27236"
     inkscape:cy="72.050547"
     inkscape:window-x="0"
     inkscape:window-y="0"
     inkscape:window-maximized="1"
     inkscape:current-layer="svg3800"
     fit-margin-top="0"
     fit-margin-left="0"
     fit-margin-right="0"
     fit-margin-bottom="0"
     inkscape:pagecheckerboard="0"
     width="100px"
     inkscape:snap-page="true" /><rect
     style="opacity:0;fill:#522d78;stroke:none;stroke-width:2;stroke-linecap:round;paint-order:stroke fill markers"
     id="rect1326"
     width="100"
     height="100"
     x="3.4106053e-15"
     y="0" /><g
     id="g846"
     transform="translate(1059.8465,65.524717)">
</g><g
     id="g848"
     transform="translate(1059.8465,65.524717)">
</g><g
     id="g850"
     transform="translate(1059.8465,65.524717)">
</g><g
     id="g852"
     transform="translate(1059.8465,65.524717)">
</g><g
     id="g854"
     transform="translate(1059.8465,65.524717)">
</g><g
     id="g856"
     transform="translate(1059.8465,65.524717)">
</g><g
     id="g858"
     transform="translate(1059.8465,65.524717)">
</g><g
     id="g860"
     transform="translate(1059.8465,65.524717)">
</g><g
     id="g862"
     transform="translate(1059.8465,65.524717)">
</g><g
     id="g864"
     transform="translate(1059.8465,65.524717)">
</g><g
     id="g866"
     transform="translate(1059.8465,65.524717)">
</g><g
     id="g868"
     transform="translate(1059.8465,65.524717)">
</g><g
     id="g870"
     transform="translate(1059.8465,65.524717)">
</g><g
     id="g872"
     transform="translate(1059.8465,65.524717)">
</g><g
     id="g874"
     transform="translate(1059.8465,65.524717)">
</g><g
     id="g1414"
     transform="matrix(1.5245744,0,0,1.5245744,0.52756476,0.451332)"
     style="fill:#cfbae5;fill-opacity:1;stroke:none;stroke-opacity:1"><path
       d="m 12.4,12.9 c 4.4,-4.5 10.2,-7.4 16.4,-8.2 0.5,1.6 1.9,2.9 3.7,2.9 2.1,0 3.9,-1.7 3.9,-3.9 0,-2.2 -1.7,-3.9 -3.9,-3.9 -2,0 -3.6,1.5 -3.8,3.4 C 22.1,4 15.9,7.1 11.3,11.8 Z M 32.5,1.3 c 1.3,0 2.4,1.1 2.4,2.4 0,1.3 -1.1,2.4 -2.4,2.4 -1.3,0 -2.4,-1.1 -2.4,-2.4 0,-1.4 1.1,-2.4 2.4,-2.4 z"
       id="path1398"
       inkscape:connector-curvature="0"
       style="fill:#cfbae5;fill-opacity:1;stroke:none;stroke-opacity:1" /><path
       d="M 4.1,40.9 5.5,40.5 C 4.7,37.9 4.4,35.3 4.4,32.6 c 0,-3.7 0.7,-7.4 2.1,-10.8 0.3,0.1 0.7,0.1 1,0.1 1.4,0 2.7,-0.7 3.4,-1.9 0.5,-0.9 0.7,-1.9 0.4,-2.9 -0.3,-1 -0.9,-1.8 -1.8,-2.4 -0.6,-0.3 -1.3,-0.5 -2,-0.5 -1.4,0 -2.7,0.7 -3.4,1.9 -1,1.7 -0.5,3.8 1,5 -1.5,3.6 -2.3,7.5 -2.3,11.5 0.1,2.7 0.5,5.6 1.3,8.3 z M 5.5,16.8 c 0.4,-0.7 1.2,-1.2 2.1,-1.2 0.4,0 0.8,0.1 1.2,0.3 0.5,0.3 0.9,0.8 1.1,1.5 C 10.1,18 10,18.7 9.7,19.2 9,20.3 7.5,20.7 6.4,20 5.2,19.4 4.8,17.9 5.5,16.8 Z"
       id="path1400"
       inkscape:connector-curvature="0"
       style="fill:#cfbae5;fill-opacity:1;stroke:none;stroke-opacity:1" /><path
       d="m 10.1,49.5 c 1.2,-1.2 1.5,-3.1 0.6,-4.7 -0.7,-1.2 -2,-2 -3.4,-2 -0.7,0 -1.3,0.2 -1.9,0.5 -0.9,0.5 -1.6,1.3 -1.8,2.3 -0.3,1 -0.1,2 0.4,3 0.7,1.2 2,2 3.4,2 0.5,0 1,-0.1 1.5,-0.3 3.9,5.1 9.3,8.9 15.5,10.6 l 0.4,-1.4 C 19,57.9 13.8,54.3 10.1,49.5 Z M 5.3,47.9 C 5,47.3 4.9,46.7 5.1,46.1 5.3,45.5 5.7,45 6.2,44.7 6.6,44.5 7,44.4 7.4,44.4 c 0.9,0 1.7,0.5 2.1,1.2 0.6,1.1 0.2,2.6 -0.9,3.3 C 7.5,49.5 6,49 5.3,47.9 Z"
       id="path1402"
       inkscape:connector-curvature="0"
       style="fill:#cfbae5;fill-opacity:1;stroke:none;stroke-opacity:1" /><path
       d="m 52.4,52.3 c -4.4,4.4 -10.1,7.2 -16.2,8 -0.4,-1.6 -1.9,-2.9 -3.7,-2.9 -2.1,0 -3.9,1.7 -3.9,3.8 0,1 0.4,2 1.1,2.8 0.7,0.7 1.7,1.2 2.7,1.2 v 0 c 2,0 3.6,-1.5 3.8,-3.4 C 42.7,61 48.7,58 53.4,53.3 Z M 32.5,63.8 v 0.8 -0.8 c -0.7,0 -1.3,-0.3 -1.7,-0.7 -0.4,-0.5 -0.7,-1.1 -0.7,-1.7 0,-1.3 1.1,-2.4 2.4,-2.4 1.3,0 2.4,1.1 2.4,2.4 0,1.3 -1.1,2.4 -2.4,2.4 z"
       id="path1404"
       inkscape:connector-curvature="0"
       style="fill:#cfbae5;fill-opacity:1;stroke:none;stroke-opacity:1" /><path
       d="m 55,15.7 c -0.5,0.5 -0.8,1 -1,1.7 -0.3,1 -0.2,2 0.3,3 0.7,1.2 2,2 3.4,2 0.7,0 1.3,-0.2 1.9,-0.5 0.9,-0.5 1.6,-1.3 1.8,-2.3 0.3,-1 0.2,-2 -0.3,-3 -0.7,-1.2 -2,-2 -3.4,-2 -0.5,0 -1,0.1 -1.4,0.3 C 52.2,9.4 46.3,5.4 39.7,3.8 l -0.4,1.5 c 6.3,1.5 11.9,5.2 15.7,10.4 z m 4.8,1.6 c 0.3,0.6 0.4,1.2 0.2,1.8 -0.2,0.6 -0.6,1.1 -1.1,1.4 -1.1,0.6 -2.6,0.2 -3.2,-0.9 -0.3,-0.6 -0.4,-1.2 -0.2,-1.8 0.2,-0.6 0.6,-1.1 1.1,-1.4 0.4,-0.2 0.8,-0.3 1.2,-0.3 0.8,0 1.6,0.5 2,1.2 z"
       id="path1406"
       inkscape:connector-curvature="0"
       style="fill:#cfbae5;fill-opacity:1;stroke:none;stroke-opacity:1" /><path
       d="m 59.7,44.2 c 1.6,-3.7 2.4,-7.6 2.4,-11.7 0,-2.5 -0.3,-5.1 -1,-7.5 l -1.5,0.4 c 0.6,2.3 0.9,4.7 0.9,7.1 0,3.8 -0.8,7.5 -2.3,11 -0.3,-0.1 -0.7,-0.1 -1.1,-0.1 -1.4,0 -2.6,0.7 -3.3,1.9 -0.5,0.9 -0.7,1.9 -0.4,2.9 0.3,1 0.9,1.9 1.8,2.4 0.6,0.4 1.3,0.5 2,0.5 1.4,0 2.6,-0.7 3.3,-1.9 0.5,-0.9 0.7,-1.9 0.4,-2.9 0,-0.8 -0.5,-1.5 -1.2,-2.1 z m -0.4,4.3 C 58.7,49.6 57.1,50 56,49.3 54.9,48.6 54.5,47.2 55.2,46 c 0.4,-0.7 1.2,-1.2 2.1,-1.2 0.4,0 0.8,0.1 1.2,0.3 0.5,0.3 0.9,0.8 1.1,1.5 0.2,0.7 0.1,1.3 -0.3,1.9 z"
       id="path1408"
       inkscape:connector-curvature="0"
       style="fill:#cfbae5;fill-opacity:1;stroke:none;stroke-opacity:1" /><path
       d="m 32.5,18.6 c -1.2,0 -2.4,0.3 -3.4,0.9 -1,-0.6 -2.1,-1 -3.2,-1 -3.2,0 -5.9,2.6 -5.9,5.9 0,3.3 2.6,5.9 5.9,5.9 0.7,0 1.3,-0.1 1.9,-0.3 1.2,1.2 2.9,1.9 4.7,1.9 1.8,0 3.5,-0.7 4.7,-1.9 0.6,0.2 1.3,0.3 1.9,0.3 3.2,0 5.9,-2.6 5.9,-5.9 0,-3.3 -2.6,-5.9 -5.9,-5.9 -1.2,0 -2.3,0.4 -3.2,1 -1,-0.6 -2.2,-0.9 -3.4,-0.9 z m -11,5.8 c 0,-2.4 2,-4.4 4.4,-4.4 0.7,0 1.4,0.2 2,0.5 -1.2,1.2 -2,2.9 -2,4.7 0,1.3 0.4,2.4 1,3.4 -0.3,0.1 -0.6,0.1 -1,0.1 -2.5,0.1 -4.4,-1.9 -4.4,-4.3 z m 11,6 c -2.8,0 -5.2,-2.3 -5.2,-5.2 0,-2.8 2.3,-5.2 5.2,-5.2 2.8,0 5.2,2.3 5.2,5.2 0,2.9 -2.4,5.2 -5.2,5.2 z M 39.1,20 c 2.4,0 4.4,2 4.4,4.4 0,2.4 -2,4.4 -4.4,4.4 -0.3,0 -0.6,0 -1,-0.1 0.6,-1 1,-2.2 1,-3.4 0,-1.9 -0.8,-3.5 -2,-4.7 0.7,-0.4 1.3,-0.6 2,-0.6 z"
       id="path1410"
       inkscape:connector-curvature="0"
       style="fill:#cfbae5;fill-opacity:1;stroke:none;stroke-opacity:1" /><path
       d="M 51.6,42.2 C 51.5,40 51.3,38 51,36.4 V 36.3 C 50.9,35.5 50.6,34.7 50.2,33.8 V 33.7 C 49.8,33 49.1,32.3 48.4,31.9 48.2,31.8 47.9,31.6 47.6,31.5 l -4.3,-1.5 -1.7,3.3 -4.2,-1.5 -4.2,7.8 h -1.4 l -4.2,-7.8 -4.2,1.5 -1.7,-3.3 -4.2,1.5 c -0.3,0.1 -0.6,0.2 -0.8,0.4 -0.8,0.4 -1.4,1.1 -1.8,1.8 l -0.1,0.2 c -0.5,0.8 -0.7,1.7 -0.8,2.5 v 0.1 c -0.2,1.6 -0.4,3.6 -0.6,5.8 v 0.8 h 5.1 c -0.1,0.8 -0.1,1.7 -0.2,2.7 v 0.8 h 28.6 v -0.8 c -0.1,-1 -0.1,-1.9 -0.2,-2.7 h 5.1 z M 14.9,41.5 c 0.1,-1.9 0.3,-3.5 0.5,-4.9 0,-0.1 0,-0.2 0,-0.2 0.1,-0.6 0.3,-1.2 0.7,-2 0.3,-0.5 0.7,-0.9 1.3,-1.3 0.2,-0.1 0.4,-0.2 0.6,-0.3 l 3,-1.1 1.1,2.1 c -0.9,0.5 -1.7,1.2 -2.2,2.1 -0.6,1.1 -1,2.2 -1,3.3 0,0.2 -0.2,1 -0.3,2.2 h -3.7 z m 4.9,3.5 c 0.2,-3.6 0.6,-5.4 0.6,-5.4 v -0.2 c 0,-0.8 0.3,-1.7 0.8,-2.6 0.5,-0.8 1.3,-1.5 2.2,-1.8 l 3.5,-1.3 4,7.5 H 34 l 4,-7.5 3.5,1.2 c 0.3,0.1 0.5,0.2 0.7,0.3 0.6,0.4 1.1,0.8 1.5,1.5 v 0.1 c 0.4,0.8 0.7,1.5 0.8,2.2 0,0 0,0.1 0,0.2 0.2,1.6 0.4,3.6 0.6,5.8 z M 46.4,41.5 C 46.3,40.6 46.2,39.8 46.1,39 V 38.9 C 46,38 45.7,37 45.1,36.1 V 36 c -0.5,-0.8 -1.2,-1.5 -2.1,-2 0,0 0,0 0,0 L 44.1,31.9 47,33 c 0.2,0.1 0.4,0.2 0.6,0.3 0.5,0.3 0.9,0.7 1.3,1.2 v 0.1 c 0.4,0.7 0.6,1.3 0.7,1.9 0,0 0,0.1 0,0.2 0.2,1.4 0.4,3 0.5,4.9 h -3.7 z"
       id="path1412"
       inkscape:connector-curvature="0"
       style="fill:#cfbae5;fill-opacity:1;stroke:none;stroke-opacity:1" /></g></svg>
