<?xml version="1.0" encoding="UTF-8" standalone="no"?>
<svg
   viewBox="0 0 500 500"
   height="500"
   width="500"
   xml:space="preserve"
   id="svg2"
   version="1.1"
   sodipodi:docname="keys.svg"
   inkscape:version="1.1 (1:1.1+202105261517+ce6663b3b7)"
   xmlns:inkscape="http://www.inkscape.org/namespaces/inkscape"
   xmlns:sodipodi="http://sodipodi.sourceforge.net/DTD/sodipodi-0.dtd"
   xmlns:xlink="http://www.w3.org/1999/xlink"
   xmlns="http://www.w3.org/2000/svg"
   xmlns:svg="http://www.w3.org/2000/svg"
   xmlns:rdf="http://www.w3.org/1999/02/22-rdf-syntax-ns#"
   xmlns:cc="http://creativecommons.org/ns#"
   xmlns:dc="http://purl.org/dc/elements/1.1/"><sodipodi:namedview
     id="namedview93"
     pagecolor="#ffffff"
     bordercolor="#666666"
     borderopacity="1.0"
     inkscape:pageshadow="2"
     inkscape:pageopacity="0.0"
     inkscape:pagecheckerboard="0"
     showgrid="false"
     inkscape:zoom="1.086"
     inkscape:cx="250"
     inkscape:cy="250"
     inkscape:window-width="1366"
     inkscape:window-height="722"
     inkscape:window-x="0"
     inkscape:window-y="0"
     inkscape:window-maximized="1"
     inkscape:current-layer="svg2" /><metadata
     id="metadata8"><rdf:RDF><cc:Work
         rdf:about=""><dc:format>image/svg+xml</dc:format><dc:type
           rdf:resource="http://purl.org/dc/dcmitype/StillImage" /></cc:Work></rdf:RDF></metadata><defs
     id="defs6"><marker
       style="overflow:visible"
       id="Arrow1Lend"
       refX="0"
       refY="0"
       orient="auto"><path
         transform="matrix(-0.8,0,0,-0.8,-10,0)"
         style="fill:context-stroke;fill-rule:evenodd;stroke:context-stroke;stroke-width:1pt"
         d="M 0,0 5,-5 -12.5,0 5,5 Z"
         id="path1632" /></marker><marker
       style="overflow:visible"
       id="Arrow1Lstart"
       refX="0"
       refY="0"
       orient="auto"><path
         transform="matrix(0.8,0,0,0.8,10,0)"
         style="fill:context-stroke;fill-rule:evenodd;stroke:context-stroke;stroke-width:1pt"
         d="M 0,0 5,-5 -12.5,0 5,5 Z"
         id="path1629" /></marker><linearGradient
       gradientTransform="matrix(1,0,0,0.99999532,234.29107,25.915879)"
       x1="990.09003"
       y1="884.32001"
       x2="1140.2"
       gradientUnits="userSpaceOnUse"
       xlink:href="#a"
       y2="990.12"
       id="linearGradient14974" /><linearGradient
       gradientTransform="matrix(1.000004,0,0,1,-244.61987,135.26745)"
       x1="-418.64001"
       y1="673.20001"
       x2="-330.07001"
       gradientUnits="userSpaceOnUse"
       xlink:href="#a"
       y2="673.20001"
       id="linearGradient14972" /><linearGradient
       gradientTransform="translate(211.8473,12.958)"
       x1="146.63"
       y1="508.07999"
       x2="286.23001"
       gradientUnits="userSpaceOnUse"
       xlink:href="#a"
       y2="508.07999"
       id="linearGradient14970" /><linearGradient
       gradientTransform="matrix(0.70079,0,0,1.303,259.6833,-620.032)"
       x1="181.42999"
       y1="602.71997"
       x2="475.70999"
       gradientUnits="userSpaceOnUse"
       xlink:href="#a"
       y2="602.71997"
       id="linearGradient13253" /><linearGradient
       x1="175.72"
       y1="737.02002"
       gradientTransform="matrix(0.70079,0,0,0.58714,263.6833,-227.512)"
       x2="470"
       gradientUnits="userSpaceOnUse"
       xlink:href="#a"
       y2="737.02002"
       id="linearGradient13251" /><filter
       height="2.4057"
       x="-0.12454"
       width="1.2491"
       y="-0.70286"
       id="filter14335"><feGaussianBlur
         stdDeviation="15.270363"
         id="feGaussianBlur14337" /></filter><linearGradient
       id="linearGradient12828"><stop
         offset="0"
         style="stop-color:#484849"
         id="stop12830" /><stop
         offset="0"
         style="stop-color:#434344"
         id="stop12862" /><stop
         offset="1"
         style="stop-color:#8f8f90;stop-opacity:0"
         id="stop12832" /></linearGradient><radialGradient
       r="147.14"
       gradientTransform="matrix(1,0,0,0.17718,0,495.93)"
       cx="328.57001"
       cy="602.71997"
       gradientUnits="userSpaceOnUse"
       xlink:href="#linearGradient12828"
       id="radialGradient13249" /><linearGradient
       id="linearGradient747"><stop
         offset="0"
         style="stop-color:#caf0fd"
         id="stop748" /><stop
         offset="1"
         style="stop-color:#005eff"
         id="stop749" /></linearGradient><filter
       height="2.325"
       x="-0.14647"
       width="1.2929"
       y="-0.66248"
       id="filter14223"><feGaussianBlur
         stdDeviation="11.044599"
         id="feGaussianBlur14225" /></filter><linearGradient
       y2="737.02002"
       x2="470"
       y1="737.02002"
       x1="175.72"
       gradientTransform="matrix(0.70079,0,0,0.58714,-27.7427,-227.512)"
       gradientUnits="userSpaceOnUse"
       id="linearGradient887"
       xlink:href="#a" /><linearGradient
       gradientTransform="matrix(0.70079,0,0,1.303,-31.7427,-620.032)"
       y2="602.71997"
       x2="475.70999"
       y1="602.71997"
       x1="181.42999"
       gradientUnits="userSpaceOnUse"
       id="linearGradient889"
       xlink:href="#a" /><linearGradient
       gradientTransform="translate(-79.5787,12.958)"
       y2="508.07999"
       x2="286.23001"
       y1="508.07999"
       x1="146.63"
       gradientUnits="userSpaceOnUse"
       id="linearGradient891"
       xlink:href="#a" /><linearGradient
       gradientTransform="matrix(1.000004,0,0,1,91.889446,-32.98654)"
       y2="673.20001"
       x2="-330.07001"
       y1="673.20001"
       x1="-418.64001"
       gradientUnits="userSpaceOnUse"
       id="linearGradient893"
       xlink:href="#a" /><linearGradient
       gradientTransform="matrix(1,0,0,0.99999532,-57.134926,25.915879)"
       y2="990.12"
       x2="1140.2"
       y1="884.32001"
       x1="990.09003"
       gradientUnits="userSpaceOnUse"
       id="linearGradient895"
       xlink:href="#a" /><linearGradient
       y2="1683.181"
       y1="511.1134"
       x2="329.64392"
       x1="-1629.9066"
       gradientUnits="userSpaceOnUse"
       gradientTransform="matrix(0.57284547,0,0,0.67718004,1684.6821,-384.4171)"
       id="a"><stop
         id="stop2"
         stop-color="#4f0754"
         offset="0" /><stop
         id="stop4"
         stop-color="#360640"
         offset=".06853585" /><stop
         id="stop6"
         stop-color="#2a0635"
         offset=".17678614" /><stop
         id="stop8"
         stop-color="#20062d"
         offset=".43467355" /><stop
         id="stop10"
         stop-color="#130522"
         offset=".64409029" /><stop
         id="stop12"
         stop-color="#130522"
         offset=".84094781" /><stop
         id="stop14"
         stop-color="#130522"
         offset="1" /></linearGradient><linearGradient
       gradientUnits="userSpaceOnUse"
       y2="477.29724"
       x2="143.4082"
       y1="477.29724"
       x1="120.07502"
       id="linearGradient1684"
       xlink:href="#a" /><linearGradient
       gradientUnits="userSpaceOnUse"
       y2="532.13751"
       x2="151.49446"
       y1="532.13751"
       x1="104.60754"
       id="linearGradient1688"
       xlink:href="#a" /><linearGradient
       gradientUnits="userSpaceOnUse"
       y2="487.15302"
       x2="591.242"
       y1="487.15302"
       x1="437.06299"
       id="linearGradient1690"
       xlink:href="#a" /><linearGradient
       gradientUnits="userSpaceOnUse"
       y2="239.77318"
       x2="484.69922"
       y1="239.77318"
       x1="460.58911"
       id="linearGradient1692"
       xlink:href="#a" /><linearGradient
       gradientUnits="userSpaceOnUse"
       y2="229.96252"
       x2="567.41168"
       y1="229.96252"
       x1="544.07532"
       id="linearGradient1694"
       xlink:href="#a" /><linearGradient
       gradientUnits="userSpaceOnUse"
       y2="192.90948"
       x2="540.74982"
       y1="192.90948"
       x1="480.26712"
       id="linearGradient1696"
       xlink:href="#a" /><linearGradient
       gradientUnits="userSpaceOnUse"
       y2="77.09301"
       x2="489.181"
       y1="77.09301"
       x1="339.97501"
       id="linearGradient1698"
       xlink:href="#a" /><linearGradient
       gradientUnits="userSpaceOnUse"
       y2="48.035522"
       x2="154.4604"
       y1="48.035522"
       x1="131.12659"
       id="linearGradient1702"
       xlink:href="#a" /><linearGradient
       gradientUnits="userSpaceOnUse"
       y2="99.731468"
       x2="171.743"
       y1="99.731468"
       x1="126.36338"
       id="linearGradient1704"
       xlink:href="#a" /><linearGradient
       gradientUnits="userSpaceOnUse"
       y2="487.15399"
       x2="588.75201"
       y1="487.15399"
       x1="439.54599"
       id="linearGradient1712"
       xlink:href="#a" /><linearGradient
       gradientUnits="userSpaceOnUse"
       y2="454.37399"
       x2="106.593"
       y1="454.37399"
       x1="23.644501"
       id="linearGradient1720"
       xlink:href="#a" /><linearGradient
       gradientUnits="userSpaceOnUse"
       y2="454.37451"
       x2="105.253"
       y1="454.37451"
       x1="24.980499"
       id="linearGradient1736"
       xlink:href="#a" /><linearGradient
       gradientUnits="userSpaceOnUse"
       y2="532.13947"
       x2="150.7384"
       y1="532.13947"
       x1="105.36459"
       id="linearGradient1744"
       xlink:href="#a" /><linearGradient
       gradientUnits="userSpaceOnUse"
       y2="477.2962"
       x2="143.79121"
       y1="477.2962"
       x1="119.69061"
       id="linearGradient1760"
       xlink:href="#a" /><linearGradient
       gradientUnits="userSpaceOnUse"
       y2="264.45551"
       x2="333.48199"
       y1="264.45551"
       x1="92.222298"
       id="linearGradient1786"
       xlink:href="#a" /><linearGradient
       gradientUnits="userSpaceOnUse"
       y2="264.45401"
       x2="337.51001"
       y1="264.45401"
       x1="88.207802"
       id="linearGradient1794"
       xlink:href="#a" /><linearGradient
       gradientUnits="userSpaceOnUse"
       y2="359.74799"
       x2="465.09506"
       y1="359.74799"
       x1="134.31393"
       id="linearGradient1802"
       xlink:href="#a" /><linearGradient
       gradientUnits="userSpaceOnUse"
       y2="299.47351"
       x2="149.46255"
       y1="299.47351"
       x1="131.16345"
       id="linearGradient1804"
       xlink:href="#a" /><linearGradient
       gradientUnits="userSpaceOnUse"
       y2="474.25101"
       x2="486.35538"
       y1="474.25101"
       x1="79.290436"
       id="linearGradient1806"
       xlink:href="#a" /><linearGradient
       gradientUnits="userSpaceOnUse"
       y2="498.79953"
       x2="136.42467"
       y1="498.79953"
       x1="131.25233"
       id="linearGradient1816"
       xlink:href="#a" /><linearGradient
       gradientUnits="userSpaceOnUse"
       y2="498.79953"
       x2="136.42467"
       y1="498.79953"
       x1="131.25233"
       id="linearGradient1824"
       xlink:href="#a" /><linearGradient
       gradientUnits="userSpaceOnUse"
       y2="500.57953"
       x2="119.03265"
       y1="500.57953"
       x1="81.571152"
       id="linearGradient1834"
       xlink:href="#a" /><linearGradient
       gradientUnits="userSpaceOnUse"
       y2="399.73151"
       x2="155.17599"
       y1="399.73151"
       x1="83.7789"
       id="linearGradient1844"
       xlink:href="#a" /><linearGradient
       gradientUnits="userSpaceOnUse"
       y2="276.353"
       x2="60.436207"
       y1="276.353"
       x1="56.840694"
       id="linearGradient1852"
       xlink:href="#a" /><linearGradient
       gradientUnits="userSpaceOnUse"
       y2="248.35945"
       x2="471.513"
       y1="248.35945"
       x1="206.873"
       id="linearGradient1860"
       xlink:href="#a" /><linearGradient
       gradientUnits="userSpaceOnUse"
       y2="151.24899"
       x2="500.70999"
       y1="151.24899"
       x1="450.961"
       id="linearGradient1862"
       xlink:href="#a" /><linearGradient
       gradientUnits="userSpaceOnUse"
       y2="148.0235"
       x2="141.72301"
       y1="148.0235"
       x1="88.1035"
       id="linearGradient1870"
       xlink:href="#a" /><linearGradient
       gradientUnits="userSpaceOnUse"
       y2="107.65263"
       x2="104.36789"
       y1="107.65263"
       x1="24.090885"
       id="linearGradient1878"
       xlink:href="#a" /><linearGradient
       gradientUnits="userSpaceOnUse"
       y2="106.383"
       x2="131.909"
       y1="106.383"
       x1="80.929298"
       id="linearGradient1886"
       xlink:href="#a" /><linearGradient
       gradientUnits="userSpaceOnUse"
       y2="69.534554"
       x2="147.42101"
       y1="69.534554"
       x1="142.36099"
       id="linearGradient1894"
       xlink:href="#a" /><linearGradient
       gradientUnits="userSpaceOnUse"
       y2="99.731468"
       x2="172.49005"
       y1="99.731468"
       x1="125.61664"
       id="linearGradient1902"
       xlink:href="#a" /><linearGradient
       gradientUnits="userSpaceOnUse"
       y2="142.1469"
       x2="501.08163"
       y1="142.1469"
       x1="158.38136"
       id="linearGradient1910"
       xlink:href="#a" /><linearGradient
       gradientUnits="userSpaceOnUse"
       y2="83.755402"
       x2="354.83218"
       y1="83.755402"
       x1="154.76781"
       id="linearGradient1918"
       xlink:href="#a" /><linearGradient
       gradientUnits="userSpaceOnUse"
       y2="143.9046"
       x2="472.9361"
       y1="143.9046"
       x1="142.50291"
       id="linearGradient1926"
       xlink:href="#a" /><linearGradient
       gradientUnits="userSpaceOnUse"
       y2="282.659"
       x2="481.98773"
       y1="282.659"
       x1="412.01529"
       id="linearGradient1934"
       xlink:href="#a" /><linearGradient
       gradientUnits="userSpaceOnUse"
       y2="77.092003"
       x2="491.67001"
       y1="77.092003"
       x1="337.492"
       id="linearGradient1942"
       xlink:href="#a" /><linearGradient
       gradientUnits="userSpaceOnUse"
       y2="192.908"
       x2="541.75598"
       y1="192.908"
       x1="479.25708"
       id="linearGradient1950"
       xlink:href="#a" /><linearGradient
       gradientUnits="userSpaceOnUse"
       y2="239.77399"
       x2="484.31042"
       y1="239.77399"
       x1="460.9794"
       id="linearGradient1958"
       xlink:href="#a" /><linearGradient
       gradientUnits="userSpaceOnUse"
       y2="527.25848"
       x2="468.03561"
       y1="527.25848"
       x1="128.03438"
       id="linearGradient1966"
       xlink:href="#a" /><clipPath
       clipPathUnits="userSpaceOnUse"
       id="clipPath831"><path
         d="M 0,660 H 660 V 0 H 0 Z"
         id="path829" /></clipPath><linearGradient
       xlink:href="#a"
       id="linearGradient1309"
       x1="70.345917"
       y1="333.66302"
       x2="596.1499"
       y2="333.66302"
       gradientUnits="userSpaceOnUse" /></defs><g
     id="g3790"
     transform="translate(0,5.2069802)"><rect
       style="fill:#ffffff;stroke-width:5.5;stroke-linecap:round;stroke-linejoin:round;stroke-miterlimit:4;stroke-dasharray:none;opacity:0"
       id="rect3697"
       width="500"
       height="500"
       x="0"
       y="-5.2069802"
       ry="0" /><g
       id="g3372"
       transform="matrix(0.48108284,0,0,0.48108284,487.97721,116.91124)"><g
         id="g1071"
         transform="matrix(1.3333333,0,0,-1.3333333,-951.03956,710.70474)"
         style="fill:url(#linearGradient1309);fill-opacity:1"><path
           id="path925"
           style="fill:#cfbae5;fill-opacity:1;fill-rule:nonzero;stroke:none"
           d="m 575.752,457.75 c -4.62,-6.771 -10.422,-12.749 -17.127,-17.477 -6.697,-4.725 -14.297,-8.217 -22.323,-9.98 -8.013,-1.712 -16.476,-1.749 -24.406,0.498 -3.958,1.105 -7.783,2.713 -11.307,4.834 -3.508,2.145 -6.751,4.698 -9.627,7.637 -0.275,0.288 -0.545,0.581 -0.815,0.877 -1.119,1.22 -2.177,2.499 -3.121,3.864 -1.209,1.667 -2.22,3.473 -3.09,5.339 -0.142,0.308 -0.27,0.623 -0.4,0.937 -1.454,3.491 -2.276,7.285 -2.057,11.085 0.161,4.145 1.648,8.181 4.004,11.563 1.214,1.671 2.622,3.186 4.165,4.547 0.811,0.629 1.577,1.323 2.447,1.872 l 1.276,0.861 1.33,0.769 c 3.575,2.024 7.449,3.396 11.45,4.313 2.054,0.339 4.154,0.108 6.121,-0.466 1.98,-0.556 3.833,-1.498 5.516,-2.659 1.656,-1.199 3.165,-2.64 4.264,-4.374 1.131,-1.708 1.808,-3.719 1.907,-5.764 0.052,-2.047 -0.471,-4.091 -1.443,-5.88 -0.969,-1.795 -2.291,-3.372 -3.757,-4.774 1.447,1.421 2.747,3.013 3.687,4.812 0.945,1.79 1.432,3.819 1.353,5.835 -0.122,2.012 -0.814,3.976 -1.946,5.64 -1.102,1.691 -2.604,3.088 -4.247,4.244 -1.668,1.118 -3.501,2.02 -5.441,2.538 -1.931,0.537 -3.974,0.729 -5.931,0.38 -3.892,-0.948 -7.747,-2.366 -11.217,-4.398 -1.764,-0.974 -3.375,-2.188 -4.918,-3.468 -1.495,-1.34 -2.851,-2.823 -4.016,-4.449 -2.257,-3.293 -3.657,-7.186 -3.783,-11.181 -0.2,-3.99 0.78,-7.984 2.463,-11.601 0.284,-0.598 0.59,-1.185 0.906,-1.768 0.641,-1.177 1.342,-2.32 2.138,-3.399 0.316,-0.453 0.65,-0.893 0.991,-1.328 0.895,-1.142 1.867,-2.226 2.882,-3.268 2.824,-2.848 6.031,-5.333 9.468,-7.4 3.453,-2.047 7.182,-3.617 11.049,-4.682 7.741,-2.174 16.01,-2.121 23.852,-0.425 7.851,1.743 15.297,5.186 21.855,9.837 6.567,4.654 12.249,10.535 16.769,17.195 4.536,6.647 7.959,14.071 9.895,21.887 1.942,7.805 2.419,15.99 1.193,23.939 -1.24,7.932 -4.244,15.631 -9.036,22.08 -2.398,3.218 -5.216,6.116 -8.37,8.599 -0.67,0.524 -1.363,1.022 -2.061,1.513 -2.59,1.821 -5.354,3.426 -8.189,4.83 -3.609,1.784 -7.429,3.139 -11.367,3.922 -2.632,0.509 -5.33,0.718 -7.997,0.547 -1.319,-0.086 -2.632,-0.256 -3.923,-0.542 -3.875,-0.913 -7.549,-2.829 -10.313,-5.728 -1.399,-1.423 -2.621,-3.029 -3.597,-4.781 -0.539,-0.848 -0.919,-1.783 -1.375,-2.678 -0.35,-0.941 -0.791,-1.848 -1.072,-2.817 -1.279,-3.82 -1.942,-7.839 -2.201,-11.874 -0.171,-1.984 0.474,-3.953 1.434,-5.703 0.968,-1.758 2.27,-3.328 3.764,-4.676 1.504,-1.336 3.212,-2.463 5.083,-3.214 0.931,-0.391 1.912,-0.64 2.901,-0.831 0.996,-0.133 2.008,-0.216 3.011,-0.098 2.016,0.176 3.94,1 5.574,2.183 1.641,1.194 2.97,2.776 4.084,4.468 -1.092,-1.707 -2.4,-3.309 -4.036,-4.532 -1.63,-1.212 -3.562,-2.073 -5.604,-2.277 -1.018,-0.135 -2.046,-0.063 -3.061,0.058 -1.006,0.181 -2.007,0.421 -2.956,0.806 -1.911,0.738 -3.662,1.86 -5.208,3.196 -1.537,1.352 -2.886,2.931 -3.901,4.722 -1.007,1.777 -1.714,3.828 -1.563,5.925 0.206,4.069 0.821,8.142 2.073,12.049 0.271,0.989 0.715,1.92 1.067,2.883 0.459,0.919 0.84,1.877 1.387,2.752 0.987,1.804 2.233,3.471 3.669,4.953 2.837,3.019 6.644,5.045 10.653,6.017 1.098,0.253 2.211,0.424 3.329,0.533 2.985,0.292 6.011,0.103 8.949,-0.442 4.039,-0.771 7.947,-2.129 11.634,-3.915 3.246,-1.582 6.362,-3.398 9.29,-5.522 0.398,-0.289 0.805,-0.563 1.194,-0.864 3.245,-2.527 6.139,-5.497 8.604,-8.788 4.929,-6.598 8.018,-14.471 9.307,-22.568 1.271,-8.116 0.8,-16.466 -1.157,-24.427 -1.956,-7.968 -5.422,-15.544 -10.029,-22.321 m -98.419,-29.542 c -1.744,-1.108 -4.462,-0.633 -7.475,1.298 -0.135,0.201 -0.249,0.558 -0.295,0.877 0.093,0 0.2,-0.005 0.321,-0.013 3.237,-0.226 6.052,2.212 6.281,5.453 0.229,3.24 -2.212,6.053 -5.452,6.281 -7.042,0.498 -10.964,-3.531 -12.291,-7.468 -0.132,-0.394 -0.244,-0.795 -0.336,-1.199 -2.586,2.607 -6.354,3.744 -10.54,3.04 -3.204,-0.542 -5.36,-3.577 -4.82,-6.78 0.542,-3.204 3.577,-5.361 6.781,-4.82 0.097,0.018 0.181,0.028 0.254,0.035 0.053,-0.308 0.052,-0.717 -0.013,-1.012 -1.744,-1.349 -4.616,-3.104 -6.862,-2.226 -1.538,0.6 -2.909,2.367 -3.875,4.841 0.186,2.574 -0.267,5.153 -1.31,7.507 0.471,8.411 8.249,15.905 18.674,17.39 1.229,0.175 2.453,0.261 3.661,0.261 4.472,0 8.734,-1.182 12.277,-3.446 4.221,-2.697 6.893,-6.624 7.524,-11.06 0.585,-4.103 -0.398,-7.62 -2.504,-8.959 m -81.193,-29.165 -9.762,-14.416 -10.204,-15.068 -9.76,-14.417 -27.625,-40.797 -2.368,3.496 26.745,39.499 9.761,14.417 10.204,15.069 9.763,14.416 10.202,15.07 11.646,17.201 c 0.609,0.897 1.828,1.132 2.724,0.524 0.896,-0.607 1.131,-1.827 0.524,-2.723 L 406.343,414.113 Z M 513.99,46.222 c 0.608,-0.896 0.374,-2.115 -0.524,-2.722 -0.335,-0.228 -0.718,-0.337 -1.096,-0.337 -0.63,0 -1.247,0.302 -1.627,0.861 l -210.658,311.118 -9.763,14.417 -10.204,15.068 -9.762,14.417 -10.203,15.069 -11.645,17.201 c -0.608,0.896 -0.373,2.116 0.523,2.723 0.896,0.607 2.116,0.372 2.723,-0.524 l 11.647,-17.201 10.204,-15.07 9.761,-14.416 10.204,-15.069 9.761,-14.417 z M 155.754,44.024 c -0.38,-0.559 -0.997,-0.861 -1.626,-0.861 -0.378,0 -0.761,0.109 -1.097,0.337 -0.897,0.607 -1.132,1.826 -0.525,2.722 l 164.973,243.644 2.368,-3.497 z m 52.657,389.413 c -0.093,0.404 -0.203,0.805 -0.336,1.199 -1.326,3.936 -5.255,7.965 -12.29,7.468 -3.241,-0.228 -5.682,-3.041 -5.454,-6.281 0.23,-3.241 3.042,-5.682 6.282,-5.453 0.12,0.008 0.226,0.012 0.32,0.013 -0.046,-0.319 -0.159,-0.676 -0.294,-0.876 -3.015,-1.933 -5.733,-2.406 -7.475,-1.299 -2.107,1.339 -3.089,4.856 -2.505,8.959 1.354,9.505 11.878,15.891 23.464,14.245 10.423,-1.485 18.203,-8.98 18.671,-17.392 -1.041,-2.353 -1.494,-4.931 -1.308,-7.503 -0.966,-2.474 -2.336,-4.243 -3.875,-4.843 -2.246,-0.878 -5.118,0.877 -6.862,2.226 -0.064,0.295 -0.067,0.704 -0.013,1.012 0.074,-0.007 0.158,-0.017 0.255,-0.035 3.203,-0.541 6.237,1.616 6.78,4.82 0.541,3.203 -1.617,6.238 -4.819,6.78 -4.182,0.704 -7.955,-0.433 -10.541,-3.04 m -25.849,19.905 c -0.872,-1.866 -1.884,-3.672 -3.091,-5.339 -0.939,-1.357 -1.991,-2.629 -3.103,-3.844 -0.275,-0.302 -0.551,-0.602 -0.834,-0.897 -2.875,-2.939 -6.119,-5.492 -9.626,-7.637 -3.524,-2.121 -7.35,-3.729 -11.308,-4.834 -7.931,-2.247 -16.392,-2.21 -24.405,-0.498 -8.027,1.763 -15.626,5.255 -22.323,9.98 -6.705,4.728 -12.507,10.706 -17.127,17.477 -4.608,6.777 -8.073,14.353 -10.03,22.321 -1.957,7.961 -2.427,16.311 -1.156,24.427 1.287,8.097 4.378,15.97 9.307,22.568 2.465,3.291 5.359,6.261 8.603,8.788 0.389,0.301 0.796,0.575 1.194,0.864 2.928,2.124 6.045,3.94 9.291,5.522 3.686,1.786 7.594,3.144 11.633,3.915 2.938,0.545 5.964,0.734 8.95,0.442 1.117,-0.109 2.23,-0.28 3.329,-0.533 4.008,-0.972 7.815,-2.998 10.653,-6.017 1.435,-1.482 2.682,-3.149 3.669,-4.953 0.546,-0.875 0.928,-1.833 1.387,-2.752 0.351,-0.963 0.796,-1.894 1.066,-2.883 1.252,-3.907 1.867,-7.98 2.073,-12.049 0.152,-2.097 -0.556,-4.148 -1.562,-5.925 -1.017,-1.791 -2.364,-3.37 -3.901,-4.722 -1.547,-1.336 -3.297,-2.458 -5.208,-3.196 -0.95,-0.385 -1.95,-0.625 -2.957,-0.806 -1.015,-0.121 -2.043,-0.193 -3.061,-0.058 -2.041,0.204 -3.975,1.065 -5.603,2.277 -1.636,1.223 -2.944,2.825 -4.037,4.532 1.115,-1.692 2.443,-3.274 4.084,-4.468 1.635,-1.183 3.56,-2.007 5.573,-2.183 1.004,-0.118 2.017,-0.035 3.013,0.098 0.989,0.191 1.97,0.44 2.9,0.831 1.871,0.751 3.581,1.878 5.084,3.214 1.494,1.348 2.796,2.918 3.763,4.676 0.96,1.75 1.606,3.719 1.434,5.703 -0.258,4.035 -0.921,8.054 -2.201,11.874 -0.28,0.969 -0.721,1.876 -1.072,2.817 -0.456,0.895 -0.836,1.83 -1.375,2.678 -0.975,1.752 -2.198,3.358 -3.596,4.781 -2.765,2.899 -6.439,4.815 -10.314,5.728 -1.291,0.286 -2.603,0.456 -3.922,0.542 -2.668,0.171 -5.366,-0.038 -7.998,-0.547 -3.938,-0.783 -7.758,-2.138 -11.367,-3.922 -2.835,-1.404 -5.599,-3.009 -8.188,-4.83 -0.7,-0.491 -1.391,-0.989 -2.062,-1.513 -3.153,-2.483 -5.972,-5.381 -8.369,-8.599 -4.792,-6.449 -7.797,-14.148 -9.037,-22.08 -1.225,-7.949 -0.747,-16.134 1.193,-23.939 1.937,-7.816 5.359,-15.24 9.895,-21.887 4.52,-6.66 10.202,-12.541 16.769,-17.195 6.559,-4.651 14.004,-8.094 21.857,-9.837 7.84,-1.696 16.109,-1.749 23.85,0.425 3.867,1.065 7.597,2.635 11.049,4.682 3.437,2.067 6.644,4.552 9.469,7.4 1.043,1.071 2.042,2.186 2.961,3.364 0.314,0.404 0.618,0.814 0.912,1.232 0.756,1.025 1.425,2.107 2.038,3.221 0.353,0.639 0.692,1.287 1.006,1.946 1.683,3.617 2.663,7.611 2.462,11.601 -0.125,3.995 -1.527,7.888 -3.782,11.181 -1.165,1.626 -2.522,3.109 -4.016,4.449 -1.543,1.28 -3.154,2.494 -4.918,3.468 -3.47,2.032 -7.324,3.45 -11.218,4.398 -1.957,0.349 -4,0.157 -5.929,-0.38 -1.942,-0.518 -3.774,-1.42 -5.443,-2.538 -1.642,-1.156 -3.145,-2.553 -4.246,-4.244 -1.133,-1.664 -1.824,-3.628 -1.946,-5.64 -0.079,-2.016 0.408,-4.045 1.353,-5.835 0.94,-1.799 2.239,-3.391 3.686,-4.812 -1.465,1.402 -2.788,2.979 -3.756,4.774 -0.973,1.789 -1.495,3.833 -1.443,5.88 0.097,2.045 0.776,4.056 1.906,5.764 1.098,1.734 2.608,3.175 4.264,4.374 1.684,1.161 3.536,2.103 5.516,2.659 1.968,0.574 4.067,0.805 6.121,0.466 4.001,-0.917 7.875,-2.289 11.45,-4.313 l 1.331,-0.769 1.277,-0.861 c 0.868,-0.549 1.634,-1.243 2.446,-1.872 1.542,-1.361 2.95,-2.876 4.164,-4.547 2.357,-3.382 3.843,-7.418 4.004,-11.563 0.221,-3.83 -0.615,-7.656 -2.092,-11.167 -0.119,-0.286 -0.235,-0.573 -0.363,-0.855 m -89.05,178.043 c 0.651,3.378 2.578,6.302 5.427,8.23 2.207,1.495 4.718,2.211 7.203,2.211 4.133,0 8.197,-1.982 10.684,-5.655 1.929,-2.849 2.634,-6.278 1.984,-9.656 -0.652,-3.379 -2.579,-6.303 -5.428,-8.231 -2.848,-1.931 -6.278,-2.634 -9.656,-1.984 -3.379,0.652 -6.302,2.579 -8.231,5.428 -1.929,2.849 -2.633,6.277 -1.983,9.657 m 50.416,-53.565 c 5.147,-1.99 10.499,-2.988 15.761,-2.988 0.499,0 0.998,0.012 1.496,0.03 -0.661,-3.079 -0.877,-6.183 -0.625,-9.274 0.544,-6.67 3.958,-18.622 19.983,-27.815 -4.252,-0.176 -8.383,-1.523 -11.995,-3.97 -4.605,-3.116 -7.731,-7.611 -9.208,-12.565 -2.126,19.753 -12.45,27.804 -18.655,30.893 -2.034,1.012 -4.168,1.791 -6.383,2.345 3.37,6.063 5.225,13.081 5.311,20.421 0.019,1.68 -0.064,3.344 -0.227,4.987 1.456,-0.76 2.967,-1.455 4.542,-2.064 m 25.539,-6.296 c 0.637,4.094 2.281,7.965 4.474,11.434 2.216,3.464 4.928,6.59 7.956,9.35 3.037,2.755 6.275,5.266 9.822,7.364 3.551,2.073 7.385,3.658 11.354,4.724 7.956,2.126 16.414,2.074 24.41,0.262 8.008,-1.833 15.587,-5.368 22.252,-10.143 6.672,-4.775 12.42,-10.805 17.002,-17.599 4.572,-6.805 7.967,-14.412 9.867,-22.392 1.901,-7.972 2.322,-16.327 0.978,-24.433 -1.385,-8.075 -4.493,-15.946 -9.522,-22.475 -2.497,-3.266 -5.411,-6.221 -8.688,-8.705 -3.294,-2.46 -6.869,-4.525 -10.666,-6.103 -1.905,-0.77 -3.855,-1.437 -5.863,-1.895 -1.996,-0.502 -4.048,-0.771 -6.106,-0.888 -4.106,-0.196 -8.317,0.424 -12.073,2.183 -3.789,1.69 -6.985,4.569 -9.25,8.012 -1.101,1.747 -1.984,3.617 -2.676,5.555 -0.282,0.987 -0.642,1.955 -0.83,2.966 l -0.325,1.505 -0.219,1.522 c -0.553,4.071 -0.388,8.177 0.245,12.232 0.448,2.034 1.442,3.897 2.706,5.511 1.251,1.633 2.814,3.002 4.518,4.134 1.728,1.093 3.625,1.959 5.644,2.335 2.006,0.415 4.124,0.299 6.059,-0.371 1.922,-0.711 3.626,-1.954 4.924,-3.521 1.308,-1.567 2.28,-3.379 3.038,-5.261 -0.782,1.872 -1.777,3.669 -3.099,5.209 -1.311,1.543 -3.015,2.748 -4.915,3.423 -1.914,0.634 -3.993,0.722 -5.96,0.288 -1.978,-0.395 -3.834,-1.272 -5.517,-2.368 -1.659,-1.133 -3.176,-2.499 -4.377,-4.11 -1.216,-1.593 -2.152,-3.418 -2.554,-5.366 -0.566,-3.966 -0.68,-8.07 -0.083,-12.048 0.25,-2 0.779,-3.947 1.395,-5.855 0.688,-1.884 1.562,-3.694 2.639,-5.379 2.22,-3.318 5.316,-6.065 8.978,-7.664 3.631,-1.668 7.703,-2.241 11.686,-2.021 1.994,0.127 3.987,0.402 5.927,0.908 1.952,0.459 3.852,1.123 5.706,1.889 3.693,1.567 7.191,3.621 10.387,6.045 3.183,2.445 6.023,5.326 8.45,8.52 4.892,6.381 7.914,14.078 9.251,21.988 1.295,7.939 0.863,16.13 -1.02,23.947 -1.884,7.826 -5.234,15.284 -9.739,21.954 -4.488,6.679 -10.111,12.615 -16.647,17.314 -6.528,4.7 -13.951,8.183 -21.787,9.997 -7.825,1.793 -16.089,1.861 -23.857,-0.194 -3.877,-1.03 -7.616,-2.573 -11.091,-4.577 -3.464,-2.013 -6.703,-4.483 -9.695,-7.162 -2.996,-2.689 -5.674,-5.732 -7.863,-9.098 -2.166,-3.372 -3.785,-7.119 -4.43,-11.067 -0.592,-3.938 -0.176,-8.059 1.489,-11.703 0.802,-1.827 1.839,-3.559 3.104,-5.115 0.587,-0.814 1.314,-1.514 1.975,-2.269 0.744,-0.675 1.423,-1.422 2.219,-2.042 3.072,-2.606 6.557,-4.714 10.207,-6.453 1.778,-0.896 3.847,-1.027 5.828,-0.786 1.992,0.245 3.933,0.871 5.74,1.758 1.798,0.901 3.479,2.069 4.871,3.528 0.709,0.718 1.304,1.536 1.848,2.384 0.493,0.875 0.947,1.785 1.21,2.761 0.585,1.935 0.533,4.027 0.042,5.985 -0.499,1.968 -1.474,3.786 -2.632,5.45 1.179,-1.648 2.181,-3.457 2.71,-5.43 0.52,-1.963 0.601,-4.078 0.034,-6.05 -0.255,-0.993 -0.702,-1.923 -1.191,-2.818 -0.542,-0.869 -1.137,-1.709 -1.847,-2.447 -1.394,-1.501 -3.086,-2.709 -4.901,-3.649 -1.826,-0.925 -3.792,-1.59 -5.834,-1.869 -2.021,-0.275 -4.189,-0.171 -6.081,0.749 -3.701,1.702 -7.255,3.786 -10.417,6.397 -0.819,0.619 -1.518,1.378 -2.282,2.062 -0.682,0.767 -1.43,1.478 -2.041,2.31 -1.307,1.587 -2.392,3.363 -3.234,5.246 -1.751,3.756 -2.218,8.043 -1.633,12.125 m 63.44,-104.684 c 1.962,8.053 7.474,14.109 13.836,16.152 0.138,0.04 0.277,0.081 0.414,0.123 1.396,0.407 2.827,0.633 4.271,0.633 1.136,0 2.281,-0.133 3.418,-0.411 4.028,-0.981 6.927,-3.199 7.389,-5.652 0.381,-2.029 -1.068,-4.376 -3.98,-6.458 -0.236,-0.05 -0.61,-0.024 -0.923,0.052 0.034,0.086 0.077,0.184 0.129,0.293 1.416,2.924 0.193,6.441 -2.729,7.857 -2.925,1.414 -6.442,0.193 -7.857,-2.732 -3.077,-6.35 -0.792,-11.491 2.371,-14.184 0.316,-0.27 0.647,-0.522 0.989,-0.757 -3.381,-1.434 -5.84,-4.51 -6.737,-8.659 -0.687,-3.175 1.331,-6.305 4.505,-6.992 3.176,-0.685 6.307,1.332 6.992,4.507 0.021,0.096 0.043,0.177 0.063,0.248 0.306,-0.065 0.684,-0.219 0.935,-0.386 0.605,-2.123 1.17,-5.438 -0.481,-7.2 -0.994,-1.061 -2.777,-1.667 -5,-1.783 -2.713,1.447 -5.798,2.072 -8.858,1.789 -7.33,3.744 -11.186,13.544 -8.747,23.56 m -48.921,60.406 c 3.379,-0.651 6.303,-2.578 8.231,-5.427 1.929,-2.849 2.633,-6.278 1.983,-9.656 -0.651,-3.379 -2.578,-6.302 -5.427,-8.23 -2.849,-1.93 -6.277,-2.634 -9.656,-1.983 -3.378,0.65 -6.301,2.578 -8.231,5.426 -1.928,2.849 -2.634,6.279 -1.982,9.656 0.65,3.379 2.577,6.302 5.426,8.231 2.157,1.461 4.647,2.219 7.194,2.219 0.819,0 1.642,-0.078 2.462,-0.236 m 29.638,42.978 c -2.94,4.109 -8.656,5.057 -12.765,2.114 -4.109,-2.941 -5.056,-8.655 -2.116,-12.765 1.997,-2.789 1.328,-3.817 0.968,-4.368 -1.454,-2.228 -5.2,-3.544 -6.621,-3.341 -6.234,2.906 -13.694,7.884 -14.292,15.211 -0.585,7.173 5.458,15.967 15.771,22.95 19.456,13.174 48.131,4.915 63.921,-18.406 7.795,-11.511 11.28,-24.86 9.813,-37.588 -1.406,-12.209 -7.251,-22.366 -16.454,-28.598 -9.038,-6.12 -18.459,-7.582 -24.588,-3.819 -5.422,3.328 -7.722,10.578 -6.48,20.414 0.177,1.396 2.974,4.558 5.802,4.923 0.564,0.074 1.901,0.246 3.429,-3.546 1.89,-4.686 7.22,-6.955 11.906,-5.064 4.687,1.889 6.954,7.221 5.066,11.907 -4.269,10.59 -12.767,16.145 -22.75,14.851 -10.639,-1.377 -20.333,-10.697 -21.607,-20.775 -0.002,-0.012 -0.002,-0.023 -0.003,-0.034 -0.528,1.141 -1.147,2.25 -1.867,3.312 -1.62,2.395 -3.635,4.422 -5.938,6.027 6.82,0.44 14.041,3.883 18.69,9.505 6.547,7.916 6.589,18.043 0.115,27.09 M 141.41,458.764 c 3.65,-3.495 9.442,-3.368 12.937,0.281 3.494,3.65 3.368,9.442 -0.282,12.936 -2.954,2.828 -2.299,4 -2.02,4.5 1.39,2.492 5.363,3.918 6.727,3.559 9.593,-2.497 15.471,-7.325 16.549,-13.596 1.219,-7.087 -3.638,-15.292 -12.675,-21.41 -9.205,-6.234 -20.804,-7.889 -32.664,-4.661 -12.363,3.364 -23.464,11.556 -31.258,23.066 -15.792,23.322 -12.811,53.013 6.644,66.187 10.313,6.982 20.721,9.328 27.164,6.123 6.582,-3.276 8.434,-12.051 8.818,-18.917 -0.334,-1.401 -2.951,-4.387 -5.56,-4.909 -0.646,-0.131 -1.849,-0.369 -3.698,2.52 -2.724,4.257 -8.383,5.498 -12.638,2.775 -4.256,-2.723 -5.499,-8.382 -2.775,-12.638 5.997,-9.371 15.417,-13.09 25.196,-9.95 7.873,2.527 14.375,9.16 16.775,16.331 0.513,-3.261 1.726,-6.46 3.696,-9.368 1.237,-1.827 2.705,-3.439 4.352,-4.816 -1.079,0.349 -2.182,0.677 -3.317,0.973 -9.832,2.558 -22.084,-2.982 -27.314,-12.349 -4.902,-8.783 -2.904,-18.741 5.343,-26.637 m 51.945,10.781 c -1.578,9.175 -7.092,16.836 -15.655,22.187 1.302,-0.22 2.605,-0.335 3.9,-0.335 4.589,0 9.073,1.365 12.956,3.995 4.09,2.77 7.123,6.68 8.778,11.235 2.104,-8.931 7.002,-16.094 14.353,-20.607 2.934,-1.803 6.141,-3.067 9.518,-3.835 -2.592,-3.629 -4.583,-7.866 -5.727,-12.56 -0.728,-2.993 -1.061,-5.979 -1.05,-8.895 -2.702,1.094 -5.597,1.894 -8.646,2.329 -6.443,0.917 -12.688,0.107 -18.161,-2.031 0.296,2.845 0.218,5.7 -0.266,8.517 m 205.083,38.071 c -5.031,6.529 -8.14,14.4 -9.524,22.475 -1.344,8.106 -0.922,16.461 0.979,24.433 1.9,7.98 5.295,15.587 9.868,22.392 4.581,6.794 10.329,12.824 17.002,17.599 6.664,4.775 14.243,8.31 22.25,10.143 7.997,1.812 16.455,1.864 24.41,-0.262 3.971,-1.066 7.805,-2.651 11.354,-4.724 3.548,-2.098 6.786,-4.609 9.822,-7.364 3.029,-2.76 5.741,-5.886 7.956,-9.35 2.195,-3.469 3.838,-7.34 4.475,-11.434 0.584,-4.082 0.116,-8.369 -1.634,-12.125 -0.841,-1.883 -1.926,-3.659 -3.235,-5.246 -0.61,-0.832 -1.357,-1.543 -2.04,-2.31 -0.764,-0.684 -1.463,-1.443 -2.282,-2.062 -3.162,-2.611 -6.714,-4.695 -10.417,-6.397 -1.891,-0.92 -4.06,-1.024 -6.08,-0.749 -2.042,0.279 -4.009,0.944 -5.834,1.869 -1.816,0.94 -3.508,2.148 -4.902,3.649 -0.71,0.738 -1.305,1.578 -1.846,2.447 -0.49,0.895 -0.937,1.825 -1.192,2.818 -0.566,1.972 -0.485,4.087 0.036,6.05 0.528,1.973 1.531,3.782 2.709,5.43 -1.158,-1.664 -2.133,-3.482 -2.632,-5.45 -0.493,-1.958 -0.542,-4.05 0.041,-5.985 0.263,-0.976 0.717,-1.886 1.21,-2.761 0.545,-0.848 1.139,-1.666 1.848,-2.384 1.392,-1.459 3.074,-2.627 4.871,-3.528 1.807,-0.887 3.748,-1.513 5.741,-1.758 1.981,-0.241 4.05,-0.11 5.827,0.786 3.65,1.739 7.136,3.847 10.208,6.453 0.795,0.62 1.474,1.367 2.219,2.042 0.661,0.755 1.388,1.455 1.974,2.269 1.265,1.556 2.303,3.288 3.104,5.115 1.666,3.644 2.08,7.765 1.49,11.703 -0.646,3.948 -2.265,7.695 -4.431,11.067 -2.188,3.366 -4.867,6.409 -7.862,9.098 -2.993,2.679 -6.232,5.149 -9.696,7.162 -3.475,2.004 -7.214,3.547 -11.09,4.577 -7.769,2.055 -16.033,1.987 -23.858,0.194 -7.836,-1.814 -15.257,-5.297 -21.786,-9.997 -6.537,-4.699 -12.16,-10.635 -16.647,-17.314 -4.506,-6.67 -7.857,-14.128 -9.74,-21.954 -1.883,-7.817 -2.314,-16.008 -1.018,-23.947 1.337,-7.91 4.357,-15.607 9.25,-21.988 2.426,-3.194 5.268,-6.075 8.45,-8.52 3.195,-2.424 6.693,-4.478 10.387,-6.045 1.855,-0.766 3.754,-1.43 5.705,-1.889 1.94,-0.506 3.934,-0.781 5.928,-0.908 3.982,-0.22 8.055,0.353 11.685,2.021 3.662,1.599 6.758,4.346 8.978,7.664 1.078,1.685 1.952,3.495 2.64,5.379 0.616,1.908 1.145,3.855 1.394,5.855 0.598,3.978 0.483,8.082 -0.082,12.048 -0.402,1.948 -1.339,3.773 -2.554,5.366 -1.201,1.611 -2.719,2.977 -4.379,4.11 -1.682,1.096 -3.537,1.973 -5.516,2.368 -1.965,0.434 -4.045,0.346 -5.96,-0.288 -1.899,-0.675 -3.604,-1.88 -4.915,-3.423 -1.321,-1.54 -2.315,-3.337 -3.099,-5.209 0.758,1.882 1.731,3.694 3.038,5.261 1.3,1.567 3.003,2.81 4.924,3.521 1.935,0.67 4.054,0.786 6.06,0.371 2.018,-0.376 3.918,-1.242 5.644,-2.335 1.703,-1.132 3.266,-2.501 4.519,-4.134 1.263,-1.614 2.256,-3.477 2.705,-5.511 0.633,-4.055 0.798,-8.161 0.245,-12.232 l -0.218,-1.522 -0.327,-1.505 c -0.187,-1.011 -0.547,-1.979 -0.829,-2.966 -0.691,-1.938 -1.576,-3.808 -2.677,-5.555 -2.264,-3.443 -5.461,-6.322 -9.249,-8.012 -3.758,-1.759 -7.969,-2.379 -12.075,-2.183 -2.055,0.117 -4.109,0.386 -6.104,0.888 -2.008,0.458 -3.96,1.125 -5.864,1.895 -3.797,1.578 -7.372,3.643 -10.666,6.103 -3.277,2.484 -6.191,5.439 -8.686,8.705 m 86.534,19.866 c 2.548,0 5.038,-0.759 7.194,-2.219 5.882,-3.982 7.426,-12.006 3.444,-17.887 -1.929,-2.849 -4.85,-4.776 -8.229,-5.426 -3.381,-0.652 -6.809,0.053 -9.658,1.983 -2.848,1.928 -4.776,4.851 -5.425,8.23 -0.651,3.378 0.053,6.807 1.981,9.656 1.929,2.849 4.853,4.777 8.232,5.427 0.82,0.158 1.643,0.236 2.461,0.236 m -60.395,-9.141 c 4.687,-1.89 10.018,0.377 11.907,5.064 1.529,3.792 2.859,3.62 3.429,3.546 2.828,-0.365 5.625,-3.527 5.802,-4.923 1.243,-9.836 -1.058,-17.086 -6.48,-20.414 -6.13,-3.765 -15.548,-2.301 -24.586,3.819 -9.204,6.232 -15.048,16.389 -16.455,28.598 -1.467,12.728 2.017,26.077 9.812,37.588 15.79,23.322 44.466,31.58 63.921,18.406 10.313,-6.983 16.356,-15.777 15.77,-22.95 -0.596,-7.328 -8.056,-12.305 -14.29,-15.211 -1.424,-0.212 -5.168,1.113 -6.621,3.341 -0.358,0.551 -1.029,1.579 0.967,4.368 2.94,4.11 1.993,9.825 -2.115,12.766 -4.11,2.941 -9.825,1.993 -12.766,-2.115 -6.474,-9.047 -6.432,-19.175 0.116,-27.09 4.65,-5.621 11.869,-9.065 18.69,-9.505 -2.303,-1.605 -4.318,-3.632 -5.938,-6.027 -0.72,-1.062 -1.34,-2.172 -1.867,-3.313 -0.002,0.011 -0.002,0.023 -0.004,0.034 -1.274,10.078 -10.967,19.399 -21.606,20.776 -9.979,1.294 -18.48,-4.26 -22.75,-14.851 -1.89,-4.686 0.378,-10.018 5.064,-11.907 m -8.591,-76.85 c -2.223,0.116 -4.007,0.722 -5.002,1.783 -1.65,1.762 -1.086,5.077 -0.481,7.199 0.251,0.168 0.629,0.322 0.935,0.387 0.021,-0.071 0.042,-0.152 0.063,-0.248 0.686,-3.175 3.81,-5.194 6.992,-4.507 3.175,0.687 5.193,3.817 4.505,6.992 -0.895,4.149 -3.354,7.225 -6.737,8.659 0.343,0.235 0.674,0.487 0.99,0.757 3.164,2.693 5.447,7.834 2.371,14.184 -1.415,2.924 -4.932,4.146 -7.856,2.732 -2.924,-1.416 -4.147,-4.933 -2.731,-7.857 0.054,-0.109 0.097,-0.207 0.131,-0.293 -0.312,-0.076 -0.687,-0.104 -0.923,-0.052 -2.913,2.082 -4.362,4.429 -3.981,6.459 0.462,2.452 3.362,4.67 7.389,5.651 2.495,0.607 5.025,0.517 7.448,-0.15 0.226,-0.068 0.454,-0.138 0.681,-0.203 6.352,-2.051 11.85,-8.102 13.809,-16.144 2.439,-10.018 -1.417,-19.816 -8.747,-23.56 -3.057,0.283 -6.144,-0.342 -8.856,-1.789 m 57.157,28.054 c -0.485,-2.807 -0.563,-5.651 -0.272,-8.486 -5.604,2.182 -11.861,2.895 -18.156,2 -3.049,-0.435 -5.944,-1.235 -8.648,-2.33 0.012,2.917 -0.321,5.903 -1.049,8.896 -1.144,4.694 -3.135,8.932 -5.725,12.561 3.376,0.768 6.582,2.031 9.518,3.834 7.349,4.513 12.248,11.676 14.352,20.608 1.655,-4.555 4.687,-8.466 8.777,-11.236 3.884,-2.63 8.368,-3.996 12.956,-3.996 1.296,0 2.6,0.116 3.9,0.336 -8.563,-5.352 -14.076,-13.012 -15.653,-22.187 m 73.899,47.673 c -4.257,2.725 -9.914,1.482 -12.639,-2.775 -1.848,-2.89 -3.051,-2.651 -3.696,-2.52 -2.608,0.522 -5.227,3.507 -5.56,4.908 0.384,6.867 2.235,15.642 8.817,18.918 6.444,3.205 16.851,0.86 27.165,-6.123 19.455,-13.174 22.434,-42.865 6.643,-66.187 -7.793,-11.51 -18.895,-19.702 -31.257,-23.066 -11.861,-3.228 -23.459,-1.572 -32.664,4.661 -9.038,6.118 -13.894,14.322 -12.676,21.41 1.08,6.271 6.957,11.099 16.551,13.596 1.372,0.359 5.336,-1.068 6.725,-3.559 0.279,-0.5 0.934,-1.672 -2.019,-4.5 -3.651,-3.494 -3.776,-9.286 -0.282,-12.936 3.495,-3.651 9.288,-3.775 12.936,-0.281 8.248,7.896 10.246,17.854 5.343,26.637 -5.231,9.368 -17.484,14.907 -27.312,12.349 -1.137,-0.296 -2.238,-0.624 -3.318,-0.973 1.646,1.377 3.114,2.989 4.351,4.816 1.969,2.908 3.184,6.108 3.697,9.368 2.399,-7.17 8.901,-13.804 16.774,-16.331 9.781,-3.139 19.199,0.58 25.196,9.95 2.724,4.256 1.481,9.915 -2.775,12.638 m -41.729,57.644 c 0.497,-0.018 0.995,-0.031 1.494,-0.03 5.262,0 10.614,0.998 15.761,2.988 1.577,0.609 3.085,1.305 4.542,2.064 -0.163,-1.643 -0.246,-3.307 -0.226,-4.987 0.086,-7.34 1.941,-14.358 5.31,-20.421 -2.214,-0.554 -4.348,-1.333 -6.382,-2.345 -6.207,-3.089 -16.53,-11.141 -18.657,-30.894 -1.474,4.955 -4.601,9.45 -9.206,12.566 -3.612,2.446 -7.742,3.794 -11.995,3.971 16.025,9.193 19.439,21.144 19.983,27.814 0.252,3.091 0.036,6.195 -0.624,9.274 m 44.358,61.309 c 2.486,3.673 6.55,5.655 10.683,5.655 2.485,0 4.996,-0.716 7.204,-2.211 2.848,-1.928 4.775,-4.852 5.425,-8.23 0.651,-3.38 -0.052,-6.808 -1.982,-9.657 -1.929,-2.849 -4.852,-4.777 -8.23,-5.428 -3.38,-0.65 -6.806,0.055 -9.657,1.984 -5.881,3.982 -7.426,12.006 -3.443,17.887 m 27.81,-96.221 c 3.337,1.869 5.952,4.393 7.651,7.487 1.994,3.628 4.341,11.322 -2.33,22.088 -2.781,4.488 -9.779,6.695 -15.601,4.918 -5.537,-1.689 -8.702,-6.439 -8.467,-12.705 0.108,-2.846 2.483,-5.076 5.347,-4.959 2.847,0.107 5.066,2.5 4.959,5.346 -0.072,1.933 0.562,2.208 0.902,2.355 1.377,0.596 3.547,0.056 4.153,-0.484 2.029,-3.304 3.992,-7.962 1.997,-11.594 -1.347,-2.453 -4.418,-4.288 -8.495,-5.217 -8.033,4.789 -16.074,7.539 -23.61,8.166 -4.299,5.318 -6.704,12.253 -6.789,19.666 -0.092,7.835 2.416,15.195 7.06,20.726 4.454,5.307 10.356,8.268 16.622,8.34 6.169,0.093 11.036,-2.166 12.75,-5.839 1.516,-3.251 0.346,-7.375 -3.293,-11.615 -0.516,-0.602 -2.814,-1.221 -4.259,-0.514 -0.289,0.143 -0.97,0.474 -0.511,2.734 0.568,2.791 -1.235,5.512 -4.028,6.08 -2.791,0.57 -5.514,-1.237 -6.08,-4.028 -1.281,-6.308 0.995,-11.561 6.088,-14.051 5.432,-2.656 12.886,-1.284 16.615,3.061 6.342,7.387 8.097,15.658 4.816,22.693 -1.635,3.503 -4.421,6.343 -7.978,8.363 1.727,1.411 3.257,3.08 4.541,4.978 3.474,5.13 4.743,11.305 3.571,17.389 -1.172,6.084 -4.641,11.348 -9.772,14.821 -10.592,7.173 -25.042,4.388 -32.21,-6.201 -1.297,-1.915 -2.263,-3.958 -2.921,-6.059 -3.201,2.551 -6.88,4.078 -10.741,4.294 -7.745,0.438 -14.78,-4.265 -19.283,-12.896 -2.65,-5.075 -1.157,-12.507 3.327,-16.564 4.205,-3.804 9.927,-3.966 15.306,-0.435 2.381,1.563 3.045,4.76 1.482,7.141 -1.564,2.382 -4.759,3.044 -7.141,1.482 -1.927,-1.264 -2.487,-0.757 -2.726,-0.54 -1.193,1.08 -1.472,3.441 -1.105,4.145 2.584,4.954 5.973,7.569 9.562,7.37 4.048,-0.227 7.938,-3.933 10.157,-9.67 4.773,-12.353 -3.39,-27.058 -18.196,-32.783 -5.868,-2.267 -12.032,-2.856 -17.756,-1.752 -4.03,7.079 -10.434,13.751 -18.908,19.49 -0.162,0.108 -0.327,0.203 -0.488,0.31 -0.613,4.065 -0.043,7.536 1.711,9.67 2.633,3.201 7.687,3.109 11.506,2.451 0.728,-0.362 2.035,-2.177 1.992,-3.676 -0.01,-0.37 -0.03,-1.061 -1.85,-1.712 -2.683,-0.957 -4.082,-3.908 -3.125,-6.591 0.959,-2.682 3.909,-4.08 6.59,-3.123 5.906,2.108 9.141,6.811 8.654,12.58 -0.512,6.065 -5.159,11.744 -10.361,12.66 -12.467,2.196 -18.743,-2.841 -21.372,-6.038 -2.425,-2.949 -3.825,-6.649 -4.206,-10.825 -26.594,10.179 -59.618,-1.289 -78.385,-29.004 -10.246,-15.132 -14.805,-32.868 -12.837,-49.942 1.903,-16.525 9.659,-30.582 21.941,-39.909 -4.938,-2.847 -8.313,-7.161 -9.255,-12.168 -1.28,-6.801 1.978,-13.497 8.936,-18.369 0.716,-0.503 1.498,-0.912 2.321,-1.23 -2.151,-1.449 -3.806,-3.458 -4.525,-5.75 -0.709,-2.263 -1.08,-4.307 -1.218,-6.17 -2.449,0.643 -5.156,-0.275 -6.652,-2.482 l -6.652,-9.826 c -1.892,-2.794 -1.155,-6.627 1.639,-8.519 l 12.194,-8.257 -10.204,-15.069 -4.141,2.804 c -2.794,1.892 -6.627,1.154 -8.519,-1.64 l -2.883,-4.257 c -1.892,-2.793 -1.153,-6.628 1.641,-8.519 l 4.141,-2.805 -10.204,-15.07 -4.14,2.805 c -2.794,1.892 -6.628,1.153 -8.52,-1.64 l -2.883,-4.257 c -1.89,-2.794 -1.153,-6.628 1.641,-8.519 l 4.142,-2.804 -25.567,-37.759 -25.567,37.759 4.141,2.804 c 2.794,1.891 3.531,5.725 1.64,8.519 l -2.883,4.257 c -1.891,2.793 -5.725,3.532 -8.518,1.64 l -4.141,-2.805 -10.204,15.07 4.14,2.805 c 2.794,1.891 3.533,5.726 1.642,8.519 l -2.883,4.257 c -1.892,2.794 -5.725,3.532 -8.519,1.64 l -4.142,-2.804 -10.203,15.069 12.193,8.257 c 2.794,1.892 3.532,5.725 1.64,8.519 l -6.652,9.826 c -1.495,2.207 -4.203,3.125 -6.653,2.482 -0.139,1.863 -0.507,3.907 -1.217,6.169 -0.72,2.292 -2.375,4.302 -4.525,5.751 0.822,0.318 1.604,0.727 2.32,1.229 6.959,4.873 10.217,11.569 8.938,18.369 -0.942,5.008 -4.317,9.322 -9.258,12.169 12.283,9.327 20.04,23.383 21.943,39.909 1.968,17.074 -2.59,34.81 -12.837,49.942 -18.768,27.715 -51.793,39.181 -78.386,29.004 -0.382,4.176 -1.78,7.876 -4.205,10.825 -2.628,3.197 -8.901,8.231 -21.373,6.038 -5.201,-0.916 -9.848,-6.596 -10.361,-12.66 -0.487,-5.769 2.748,-10.472 8.654,-12.58 2.681,-0.957 5.633,0.441 6.59,3.123 0.958,2.683 -0.44,5.634 -3.123,6.591 -1.821,0.651 -1.841,1.342 -1.852,1.712 -0.043,1.499 1.265,3.315 1.993,3.675 3.818,0.658 8.873,0.751 11.504,-2.449 1.755,-2.135 2.326,-5.606 1.713,-9.671 -0.161,-0.107 -0.328,-0.202 -0.488,-0.31 -8.476,-5.739 -14.879,-12.411 -18.908,-19.489 -5.725,-1.104 -11.889,-0.515 -17.756,1.751 -14.808,5.725 -22.97,20.43 -18.196,32.783 2.218,5.737 6.11,9.443 10.157,9.67 3.58,0.196 6.976,-2.416 9.562,-7.37 0.367,-0.704 0.087,-3.065 -1.105,-4.145 -0.238,-0.217 -0.798,-0.725 -2.727,0.54 -2.381,1.562 -5.579,0.898 -7.14,-1.482 -1.563,-2.381 -0.9,-5.578 1.482,-7.141 5.382,-3.532 11.103,-3.368 15.306,0.435 4.484,4.058 5.976,11.489 3.328,16.564 -4.504,8.631 -11.526,13.344 -19.284,12.896 -3.858,-0.216 -7.533,-1.74 -10.732,-4.287 -0.67,2.121 -1.648,4.158 -2.93,6.052 -7.171,10.591 -21.622,13.371 -32.211,6.201 -5.13,-3.473 -8.6,-8.737 -9.771,-14.821 -1.172,-6.084 0.096,-12.259 3.57,-17.389 1.282,-1.895 2.81,-3.561 4.531,-4.97 -3.552,-2.025 -6.333,-4.871 -7.966,-8.371 -3.282,-7.035 -1.527,-15.306 4.814,-22.693 3.73,-4.345 11.183,-5.718 16.615,-3.061 5.093,2.49 7.369,7.743 6.088,14.051 -0.566,2.791 -3.287,4.592 -6.08,4.028 -2.792,-0.568 -4.594,-3.289 -4.028,-6.08 0.459,-2.26 -0.221,-2.591 -0.511,-2.734 -1.445,-0.705 -3.741,-0.087 -4.258,0.514 -3.64,4.24 -4.809,8.364 -3.293,11.615 1.687,3.616 6.448,5.841 12.466,5.841 0.093,0 0.188,0 0.285,-0.002 6.264,-0.072 12.167,-3.033 16.622,-8.34 4.643,-5.531 7.15,-12.891 7.058,-20.726 -0.084,-7.413 -2.489,-14.347 -6.788,-19.665 -7.538,-0.627 -15.577,-3.378 -23.61,-8.167 -4.078,0.929 -7.148,2.764 -8.495,5.217 -1.995,3.632 -0.032,8.29 1.997,11.594 0.606,0.54 2.777,1.08 4.152,0.484 0.341,-0.147 0.975,-0.422 0.903,-2.355 -0.108,-2.846 2.114,-5.24 4.959,-5.346 2.837,-0.101 5.24,2.113 5.347,4.959 0.235,6.267 -2.93,11.016 -8.469,12.705 -5.822,1.779 -12.818,-0.43 -15.6,-4.919 -6.67,-10.765 -4.322,-18.459 -2.33,-22.087 1.7,-3.094 4.314,-5.618 7.651,-7.487 -22.347,-20.389 -25.214,-57.573 -5.443,-86.77 10.245,-15.133 25.021,-25.952 41.605,-30.464 5.581,-1.519 11.147,-2.27 16.59,-2.27 11.222,0 21.92,3.193 31.139,9.436 0.714,0.483 1.407,0.982 2.088,1.486 0.814,-5.632 3.564,-10.356 7.858,-13.087 5.841,-3.713 13.268,-3.175 20.376,1.478 0.732,0.479 1.402,1.053 2.002,1.699 0.547,-2.535 1.798,-4.817 3.659,-6.337 2.569,-2.097 5.002,-3.45 7.242,-4.283 -0.156,-1.401 0.159,-2.86 1.006,-4.112 l 6.654,-9.826 c 1.892,-2.794 5.726,-3.532 8.519,-1.641 l 9.466,6.41 10.204,-15.069 -1.415,-0.957 c -2.794,-1.893 -3.531,-5.726 -1.64,-8.52 l 2.884,-4.257 c 1.891,-2.794 5.724,-3.531 8.518,-1.64 l 1.414,0.958 10.204,-15.07 -1.415,-0.957 c -2.793,-1.892 -3.531,-5.725 -1.639,-8.519 l 2.883,-4.257 c 1.891,-2.794 5.723,-3.531 8.518,-1.641 l 1.414,0.957 32.601,-48.144 L 148.156,49.17 c -4.857,-7.174 -2.98,-16.925 4.194,-21.782 2.694,-1.825 5.752,-2.7 8.779,-2.7 5.029,0 9.97,2.416 13.002,6.893 l 4.045,5.975 12.414,-8.407 c 2.325,-1.574 5.486,-0.966 7.06,1.36 l 4.449,6.569 5.52,-3.738 c -1.958,-6.225 -0.299,-12.773 4.626,-16.107 6.24,-4.225 15.335,-1.69 20.312,5.663 4.979,7.351 3.955,16.736 -2.286,20.962 -4.923,3.334 -11.618,2.445 -16.672,-1.686 l -5.52,3.738 4.448,6.569 c 1.575,2.326 0.966,5.486 -1.359,7.062 l -12.414,8.404 5.1,7.534 12.415,-8.406 c 2.324,-1.574 5.486,-0.966 7.06,1.36 l 4.448,6.569 5.52,-3.737 c -1.959,-6.227 -0.299,-12.773 4.626,-16.108 6.24,-4.225 15.334,-1.69 20.313,5.661 4.979,7.353 3.954,16.739 -2.286,20.963 -4.925,3.335 -11.617,2.446 -16.673,-1.685 l -5.52,3.738 4.448,6.569 c 1.575,2.326 0.966,5.487 -1.359,7.061 l -12.414,8.406 5.101,7.532 12.414,-8.405 c 2.324,-1.575 5.487,-0.966 7.061,1.359 l 4.449,6.57 5.519,-3.738 c -1.959,-6.226 -0.299,-12.773 4.626,-16.108 6.24,-4.225 15.334,-1.69 20.312,5.662 4.98,7.353 3.955,16.737 -2.285,20.964 -4.925,3.334 -11.62,2.443 -16.673,-1.686 l -5.52,3.738 4.448,6.569 c 1.574,2.324 0.966,5.486 -1.359,7.061 l -12.414,8.405 83.138,122.784 83.137,-122.784 -12.413,-8.405 c -2.326,-1.575 -2.935,-4.737 -1.361,-7.061 l 4.449,-6.569 -5.52,-3.738 c -5.055,4.129 -11.749,5.02 -16.674,1.686 -6.24,-4.227 -7.263,-13.611 -2.285,-20.964 4.979,-7.352 14.073,-9.887 20.313,-5.662 4.925,3.335 6.584,9.882 4.626,16.108 l 5.521,3.738 4.447,-6.57 c 1.574,-2.325 4.736,-2.934 7.061,-1.359 l 12.414,8.405 5.1,-7.532 -12.414,-8.406 c -2.325,-1.574 -2.933,-4.735 -1.359,-7.061 l 4.448,-6.569 -5.52,-3.738 c -5.054,4.131 -11.748,5.02 -16.672,1.685 -6.242,-4.224 -7.265,-13.61 -2.287,-20.963 4.979,-7.351 14.074,-9.886 20.313,-5.661 4.926,3.335 6.584,9.881 4.625,16.108 l 5.523,3.737 4.447,-6.569 c 1.574,-2.326 4.735,-2.934 7.061,-1.36 l 12.414,8.406 5.099,-7.533 -12.414,-8.405 c -2.324,-1.576 -2.933,-4.736 -1.358,-7.062 l 4.447,-6.569 -5.52,-3.738 c -5.054,4.131 -11.748,5.02 -16.671,1.686 -6.243,-4.226 -7.265,-13.611 -2.288,-20.962 4.979,-7.353 14.074,-9.888 20.314,-5.663 4.926,3.334 6.584,9.881 4.625,16.107 l 5.52,3.738 4.45,-6.569 c 1.574,-2.326 4.734,-2.934 7.06,-1.36 l 12.414,8.407 4.046,-5.975 c 3.031,-4.477 7.971,-6.893 13.001,-6.893 3.027,0 6.085,0.875 8.78,2.7 7.172,4.857 9.05,14.608 4.194,21.782 l -166.152,245.383 32.601,48.144 1.413,-0.957 c 2.794,-1.89 6.628,-1.153 8.52,1.641 l 2.881,4.257 c 1.893,2.794 1.155,6.627 -1.638,8.519 l -1.415,0.956 10.205,15.071 1.414,-0.958 c 2.793,-1.891 6.626,-1.154 8.517,1.64 l 2.883,4.257 c 1.891,2.794 1.155,6.627 -1.64,8.52 l -1.414,0.957 10.204,15.069 9.467,-6.41 c 2.792,-1.891 6.626,-1.153 8.518,1.641 l 6.652,9.826 c 0.849,1.252 1.164,2.711 1.008,4.112 2.241,0.833 4.674,2.186 7.241,4.283 1.861,1.52 3.112,3.801 3.66,6.336 0.6,-0.645 1.269,-1.219 2.002,-1.698 7.11,-4.652 14.535,-5.19 20.376,-1.478 4.293,2.731 7.043,7.455 7.858,13.087 0.682,-0.504 1.374,-1.003 2.088,-1.486 9.221,-6.243 19.916,-9.436 31.138,-9.436 5.444,0 11.01,0.751 16.591,2.27 16.583,4.512 31.359,15.331 41.605,30.464 19.77,29.197 16.902,66.381 -5.444,86.77" /></g><g
         id="g2455"
         transform="translate(0,-46)" /><g
         id="g2461"
         transform="matrix(-1,0,0,1,-989.33983,124)" /></g></g></svg>
