<?xml version="1.0" encoding="UTF-8" standalone="no"?>
<svg
   viewBox="0 0 99.999999 100"
   height="100"
   width="100"
   xml:space="preserve"
   id="svg2"
   version="1.1"
   xmlns:xlink="http://www.w3.org/1999/xlink"
   xmlns="http://www.w3.org/2000/svg"
   xmlns:svg="http://www.w3.org/2000/svg"
   xmlns:rdf="http://www.w3.org/1999/02/22-rdf-syntax-ns#"
   xmlns:cc="http://creativecommons.org/ns#"
   xmlns:dc="http://purl.org/dc/elements/1.1/"><metadata
     id="metadata8"><rdf:RDF><cc:Work
         rdf:about=""><dc:format>image/svg+xml</dc:format><dc:type
           rdf:resource="http://purl.org/dc/dcmitype/StillImage" /></cc:Work></rdf:RDF></metadata><defs
     id="defs6"><linearGradient
   id="linearGradient1204"><stop
     style="stop-color:#000000;stop-opacity:1;"
     offset="0"
     id="stop1200" /><stop
     style="stop-color:#000000;stop-opacity:0;"
     offset="1"
     id="stop1202" /></linearGradient><linearGradient
   gradientTransform="matrix(1,0,0,0.99999532,234.29107,25.915879)"
   x1="990.09003"
   y1="884.32001"
   x2="1140.2"
   gradientUnits="userSpaceOnUse"
   xlink:href="#a"
   y2="990.12"
   id="linearGradient14974" /><linearGradient
   gradientTransform="matrix(1.000004,0,0,1,-244.61987,135.26745)"
   x1="-418.64001"
   y1="673.20001"
   x2="-330.07001"
   gradientUnits="userSpaceOnUse"
   xlink:href="#a"
   y2="673.20001"
   id="linearGradient14972" /><linearGradient
   gradientTransform="translate(211.8473,12.958)"
   x1="146.63"
   y1="508.07999"
   x2="286.23001"
   gradientUnits="userSpaceOnUse"
   xlink:href="#a"
   y2="508.07999"
   id="linearGradient14970" /><linearGradient
   gradientTransform="matrix(0.70079,0,0,1.303,259.6833,-620.032)"
   x1="181.42999"
   y1="602.71997"
   x2="475.70999"
   gradientUnits="userSpaceOnUse"
   xlink:href="#a"
   y2="602.71997"
   id="linearGradient13253" /><linearGradient
   x1="175.72"
   y1="737.02002"
   gradientTransform="matrix(0.70079,0,0,0.58714,263.6833,-227.512)"
   x2="470"
   gradientUnits="userSpaceOnUse"
   xlink:href="#a"
   y2="737.02002"
   id="linearGradient13251" /><filter
   height="2.4057"
   x="-0.12454"
   width="1.2491"
   y="-0.70286"
   id="filter14335"><feGaussianBlur
     stdDeviation="15.270363"
     id="feGaussianBlur14337" /></filter><linearGradient
   id="linearGradient12828"><stop
     offset="0"
     style="stop-color:#484849"
     id="stop12830" /><stop
     offset="0"
     style="stop-color:#434344"
     id="stop12862" /><stop
     offset="1"
     style="stop-color:#8f8f90;stop-opacity:0"
     id="stop12832" /></linearGradient><radialGradient
   r="147.14"
   gradientTransform="matrix(1,0,0,0.17718,0,495.93)"
   cx="328.57001"
   cy="602.71997"
   gradientUnits="userSpaceOnUse"
   xlink:href="#linearGradient12828"
   id="radialGradient13249" /><linearGradient
   id="linearGradient747"><stop
     offset="0"
     style="stop-color:#caf0fd"
     id="stop748" /><stop
     offset="1"
     style="stop-color:#005eff"
     id="stop749" /></linearGradient><filter
   height="2.325"
   x="-0.14647"
   width="1.2929"
   y="-0.66248"
   id="filter14223"><feGaussianBlur
     stdDeviation="11.044599"
     id="feGaussianBlur14225" /></filter><linearGradient
   y2="737.02002"
   x2="470"
   y1="737.02002"
   x1="175.72"
   gradientTransform="matrix(0.70079,0,0,0.58714,-27.7427,-227.512)"
   gradientUnits="userSpaceOnUse"
   id="linearGradient887"
   xlink:href="#a" /><linearGradient
   gradientTransform="matrix(0.70079,0,0,1.303,-31.7427,-620.032)"
   y2="602.71997"
   x2="475.70999"
   y1="602.71997"
   x1="181.42999"
   gradientUnits="userSpaceOnUse"
   id="linearGradient889"
   xlink:href="#a" /><linearGradient
   gradientTransform="translate(-79.5787,12.958)"
   y2="508.07999"
   x2="286.23001"
   y1="508.07999"
   x1="146.63"
   gradientUnits="userSpaceOnUse"
   id="linearGradient891"
   xlink:href="#a" /><linearGradient
   gradientTransform="matrix(1.000004,0,0,1,91.889446,-32.98654)"
   y2="673.20001"
   x2="-330.07001"
   y1="673.20001"
   x1="-418.64001"
   gradientUnits="userSpaceOnUse"
   id="linearGradient893"
   xlink:href="#a" /><linearGradient
   gradientTransform="matrix(1,0,0,0.99999532,-57.134926,25.915879)"
   y2="990.12"
   x2="1140.2"
   y1="884.32001"
   x1="990.09003"
   gradientUnits="userSpaceOnUse"
   id="linearGradient895"
   xlink:href="#a" /><linearGradient
   y2="1683.181"
   y1="511.1134"
   x2="329.64392"
   x1="-1629.9066"
   gradientUnits="userSpaceOnUse"
   gradientTransform="matrix(0.57284547,0,0,0.67718004,1684.6821,-384.4171)"
   id="a"><stop
     id="stop2"
     stop-color="#4f0754"
     offset="0" /><stop
     id="stop4"
     stop-color="#360640"
     offset=".06853585" /><stop
     id="stop6"
     stop-color="#2a0635"
     offset=".17678614" /><stop
     id="stop8"
     stop-color="#20062d"
     offset=".43467355" /><stop
     id="stop10"
     stop-color="#130522"
     offset=".64409029" /><stop
     id="stop12"
     stop-color="#130522"
     offset=".84094781" /><stop
     id="stop14"
     stop-color="#130522"
     offset="1" /></linearGradient><linearGradient
   gradientUnits="userSpaceOnUse"
   y2="477.29724"
   x2="143.4082"
   y1="477.29724"
   x1="120.07502"
   id="linearGradient1684"
   xlink:href="#linearGradient747" /><linearGradient
   gradientUnits="userSpaceOnUse"
   y2="532.13751"
   x2="151.49446"
   y1="532.13751"
   x1="104.60754"
   id="linearGradient1688"
   xlink:href="#a" /><linearGradient
   gradientUnits="userSpaceOnUse"
   y2="487.15302"
   x2="591.242"
   y1="487.15302"
   x1="437.06299"
   id="linearGradient1690"
   xlink:href="#a" /><linearGradient
   gradientUnits="userSpaceOnUse"
   y2="239.77318"
   x2="484.69922"
   y1="239.77318"
   x1="460.58911"
   id="linearGradient1692"
   xlink:href="#a" /><linearGradient
   gradientUnits="userSpaceOnUse"
   y2="229.96252"
   x2="567.41168"
   y1="229.96252"
   x1="544.07532"
   id="linearGradient1694"
   xlink:href="#linearGradient747" /><linearGradient
   gradientUnits="userSpaceOnUse"
   y2="192.90948"
   x2="540.74982"
   y1="192.90948"
   x1="480.26712"
   id="linearGradient1696"
   xlink:href="#linearGradient747" /><linearGradient
   gradientUnits="userSpaceOnUse"
   y2="77.09301"
   x2="489.181"
   y1="77.09301"
   x1="339.97501"
   id="linearGradient1698"
   xlink:href="#a" /><linearGradient
   gradientUnits="userSpaceOnUse"
   y2="48.035522"
   x2="154.4604"
   y1="48.035522"
   x1="131.12659"
   id="linearGradient1702"
   xlink:href="#linearGradient747" /><linearGradient
   gradientUnits="userSpaceOnUse"
   y2="99.731468"
   x2="171.743"
   y1="99.731468"
   x1="126.36338"
   id="linearGradient1704"
   xlink:href="#linearGradient747" /><linearGradient
   gradientUnits="userSpaceOnUse"
   y2="487.15399"
   x2="588.75201"
   y1="487.15399"
   x1="439.54599"
   id="linearGradient1712"
   xlink:href="#linearGradient747" /><linearGradient
   gradientUnits="userSpaceOnUse"
   y2="454.37399"
   x2="106.593"
   y1="454.37399"
   x1="23.644501"
   id="linearGradient1720"
   xlink:href="#a" /><linearGradient
   gradientUnits="userSpaceOnUse"
   y2="454.37451"
   x2="105.253"
   y1="454.37451"
   x1="24.980499"
   id="linearGradient1736"
   xlink:href="#linearGradient747" /><linearGradient
   gradientUnits="userSpaceOnUse"
   y2="532.13947"
   x2="150.7384"
   y1="532.13947"
   x1="105.36459"
   id="linearGradient1744"
   xlink:href="#linearGradient747" /><linearGradient
   gradientUnits="userSpaceOnUse"
   y2="477.2962"
   x2="143.79121"
   y1="477.2962"
   x1="119.69061"
   id="linearGradient1760"
   xlink:href="#a" /><linearGradient
   gradientUnits="userSpaceOnUse"
   y2="264.45551"
   x2="333.48199"
   y1="264.45551"
   x1="92.222298"
   id="linearGradient1786"
   xlink:href="#linearGradient747" /><linearGradient
   gradientUnits="userSpaceOnUse"
   y2="264.45401"
   x2="337.51001"
   y1="264.45401"
   x1="88.207802"
   id="linearGradient1794"
   xlink:href="#a" /><linearGradient
   gradientUnits="userSpaceOnUse"
   y2="359.74799"
   x2="465.09506"
   y1="359.74799"
   x1="134.31393"
   id="linearGradient1802"
   xlink:href="#a" /><linearGradient
   gradientUnits="userSpaceOnUse"
   y2="299.47351"
   x2="149.46255"
   y1="299.47351"
   x1="131.16345"
   id="linearGradient1804"
   xlink:href="#a" /><linearGradient
   gradientUnits="userSpaceOnUse"
   y2="474.25101"
   x2="486.35538"
   y1="474.25101"
   x1="79.290436"
   id="linearGradient1806"
   xlink:href="#a" /><linearGradient
   gradientUnits="userSpaceOnUse"
   y2="498.79953"
   x2="136.42467"
   y1="498.79953"
   x1="131.25233"
   id="linearGradient1816"
   xlink:href="#a" /><linearGradient
   gradientUnits="userSpaceOnUse"
   y2="498.79953"
   x2="136.42467"
   y1="498.79953"
   x1="131.25233"
   id="linearGradient1824"
   xlink:href="#a" /><linearGradient
   gradientUnits="userSpaceOnUse"
   y2="500.57953"
   x2="119.03265"
   y1="500.57953"
   x1="81.571152"
   id="linearGradient1834"
   xlink:href="#a" /><linearGradient
   gradientUnits="userSpaceOnUse"
   y2="399.73151"
   x2="155.17599"
   y1="399.73151"
   x1="83.7789"
   id="linearGradient1844"
   xlink:href="#a" /><linearGradient
   gradientUnits="userSpaceOnUse"
   y2="276.353"
   x2="60.436207"
   y1="276.353"
   x1="56.840694"
   id="linearGradient1852"
   xlink:href="#a" /><linearGradient
   gradientUnits="userSpaceOnUse"
   y2="248.35945"
   x2="471.513"
   y1="248.35945"
   x1="206.873"
   id="linearGradient1860"
   xlink:href="#a" /><linearGradient
   gradientUnits="userSpaceOnUse"
   y2="151.24899"
   x2="500.70999"
   y1="151.24899"
   x1="450.961"
   id="linearGradient1862"
   xlink:href="#a" /><linearGradient
   gradientUnits="userSpaceOnUse"
   y2="148.0235"
   x2="141.72301"
   y1="148.0235"
   x1="88.1035"
   id="linearGradient1870"
   xlink:href="#a" /><linearGradient
   gradientUnits="userSpaceOnUse"
   y2="107.65263"
   x2="104.36789"
   y1="107.65263"
   x1="24.090885"
   id="linearGradient1878"
   xlink:href="#linearGradient747" /><linearGradient
   gradientUnits="userSpaceOnUse"
   y2="106.383"
   x2="131.909"
   y1="106.383"
   x1="80.929298"
   id="linearGradient1886"
   xlink:href="#a" /><linearGradient
   gradientUnits="userSpaceOnUse"
   y2="69.534554"
   x2="147.42101"
   y1="69.534554"
   x1="142.36099"
   id="linearGradient1894"
   xlink:href="#a" /><linearGradient
   gradientUnits="userSpaceOnUse"
   y2="99.731468"
   x2="172.49005"
   y1="99.731468"
   x1="125.61664"
   id="linearGradient1902"
   xlink:href="#a" /><linearGradient
   gradientUnits="userSpaceOnUse"
   y2="142.1469"
   x2="501.08163"
   y1="142.1469"
   x1="158.38136"
   id="linearGradient1910"
   xlink:href="#a" /><linearGradient
   gradientUnits="userSpaceOnUse"
   y2="83.755402"
   x2="354.83218"
   y1="83.755402"
   x1="154.76781"
   id="linearGradient1918"
   xlink:href="#a" /><linearGradient
   gradientUnits="userSpaceOnUse"
   y2="143.9046"
   x2="472.9361"
   y1="143.9046"
   x1="142.50291"
   id="linearGradient1926"
   xlink:href="#a" /><linearGradient
   gradientUnits="userSpaceOnUse"
   y2="282.659"
   x2="481.98773"
   y1="282.659"
   x1="412.01529"
   id="linearGradient1934"
   xlink:href="#a" /><linearGradient
   gradientUnits="userSpaceOnUse"
   y2="77.092003"
   x2="491.67001"
   y1="77.092003"
   x1="337.492"
   id="linearGradient1942"
   xlink:href="#linearGradient747" /><linearGradient
   gradientUnits="userSpaceOnUse"
   y2="192.908"
   x2="541.75598"
   y1="192.908"
   x1="479.25708"
   id="linearGradient1950"
   xlink:href="#a" /><linearGradient
   gradientUnits="userSpaceOnUse"
   y2="239.77399"
   x2="484.31042"
   y1="239.77399"
   x1="460.9794"
   id="linearGradient1958"
   xlink:href="#linearGradient747" /><linearGradient
   gradientUnits="userSpaceOnUse"
   y2="527.25848"
   x2="468.03561"
   y1="527.25848"
   x1="128.03438"
   id="linearGradient1966"
   xlink:href="#a" /><linearGradient
   xlink:href="#linearGradient1204"
   id="linearGradient1306"
   gradientUnits="userSpaceOnUse"
   x1="23.5945"
   y1="282.1225"
   x2="591.29199"
   y2="282.1225"
   gradientTransform="matrix(0.26650176,0,0,-0.26650176,47.887477,576.06419)" /><linearGradient
   xlink:href="#linearGradient1204"
   id="linearGradient1312"
   gradientUnits="userSpaceOnUse"
   x1="23.5945"
   y1="282.1225"
   x2="591.29199"
   y2="282.1225"
   gradientTransform="matrix(0.26650176,0,0,-0.26650176,47.887477,576.06419)" /><linearGradient
   xlink:href="#linearGradient1204"
   id="linearGradient1318"
   gradientUnits="userSpaceOnUse"
   x1="23.5945"
   y1="282.1225"
   x2="591.29199"
   y2="282.1225"
   gradientTransform="matrix(0.26650176,0,0,-0.26650176,47.887477,576.06419)" /><linearGradient
   xlink:href="#linearGradient1204"
   id="linearGradient1326"
   gradientUnits="userSpaceOnUse"
   x1="23.5945"
   y1="282.1225"
   x2="591.29199"
   y2="282.1225"
   gradientTransform="matrix(0.26650176,0,0,-0.26650176,47.887477,576.06419)" /><linearGradient
   xlink:href="#linearGradient1204"
   id="linearGradient1330"
   gradientUnits="userSpaceOnUse"
   x1="23.5945"
   y1="282.1225"
   x2="591.29199"
   y2="282.1225"
   gradientTransform="matrix(0.26650176,0,0,-0.26650176,47.887477,576.06419)" /><linearGradient
   xlink:href="#linearGradient1204"
   id="linearGradient1334"
   gradientUnits="userSpaceOnUse"
   x1="23.5945"
   y1="282.1225"
   x2="591.29199"
   y2="282.1225"
   gradientTransform="matrix(0.26650176,0,0,-0.26650176,47.887477,576.06419)" /><linearGradient
   xlink:href="#linearGradient1204"
   id="linearGradient1356"
   gradientUnits="userSpaceOnUse"
   x1="23.5945"
   y1="282.1225"
   x2="591.29199"
   y2="282.1225"
   gradientTransform="matrix(0.26650176,0,0,-0.26650176,47.887477,576.06419)" />





























</defs><rect
     y="0.00045522803"
     x="0.00045523228"
     height="99.999542"
     width="99.999542"
     id="rect2008"
     style="opacity:0;fill:#4f0754;fill-opacity:1;stroke:#52c390;stroke-width:0.12304;stroke-opacity:1" /><g
     id="g1190"
     style="fill:#cfbae5;fill-opacity:1"
     transform="matrix(0.69898717,0,0,0.69898717,-16.730843,-297.52213)"><path
       id="path1254"
       style="fill:#cfbae5;fill-opacity:1;fill-rule:nonzero;stroke:url(#linearGradient1306);stroke-width:0.0266502;stroke-opacity:1"
       d="m 83.041458,548.26353 -13.434701,-2.07898 -0.151479,0.97806 13.434807,2.07871 0.151373,-0.97779" /><path
       id="path1256"
       style="fill:#cfbae5;fill-opacity:1;fill-rule:nonzero;stroke:none;stroke-width:0.0266502;stroke-opacity:1"
       d="m 104.61504,473.43729 c -17.757011,0 -32.150158,14.39616 -32.150158,32.14971 0,17.75701 14.393147,32.14837 32.149888,32.14837 17.75408,0 32.14624,-14.39136 32.14624,-32.14837 0,-17.75355 -14.39216,-32.14971 -32.14597,-32.14971" /><path
       id="path1258"
       style="fill:#cfbae5;fill-opacity:1;fill-rule:nonzero;stroke:url(#linearGradient1312);stroke-width:0.0266502;stroke-opacity:1"
       d="m 65.241752,465.31299 c -5.702019,0 -10.339869,-4.639 -10.339975,-10.34 0,-5.70234 4.637956,-10.34054 10.339975,-10.34054 5.701139,0 10.339788,4.6382 10.339788,10.34054 2.67e-4,5.701 -4.638649,10.34 -10.339788,10.34 z m 0,0.71316 c 6.094122,0 11.052947,-4.95907 11.052947,-11.05316 0,-6.09517 -4.958931,-11.0537 -11.052947,-11.0537 -6.095109,0 -11.052974,4.95853 -11.052974,11.0537 1.06e-4,6.09436 4.957972,11.05316 11.052974,11.05316" /><path
       id="path1262"
       style="fill:#cfbae5;fill-opacity:1;fill-rule:nonzero;stroke:url(#linearGradient1318);stroke-width:0.0266502;stroke-opacity:1"
       d="m 76.169177,434.18398 c 0.03518,-3.2228 2.686071,-5.81533 5.90861,-5.77989 3.223073,0.0357 5.815602,2.68634 5.77989,5.90888 -0.03544,3.22254 -2.686071,5.8156 -5.90861,5.77989 -3.222539,-0.0352 -5.815868,-2.68634 -5.77989,-5.90888 z m -0.403217,-0.004 c -0.03811,3.44453 2.733775,6.27825 6.17831,6.31609 3.444802,0.0381 6.278515,-2.73404 6.316358,-6.17831 0.03811,-3.44533 -2.733242,-6.27825 -6.178577,-6.31609 -3.444535,-0.0381 -6.278248,2.73351 -6.316091,6.17831" /><path
       id="path1266"
       style="fill:#cfbae5;fill-opacity:1;fill-rule:nonzero;stroke:url(#linearGradient1326);stroke-width:0.0266502;stroke-opacity:1"
       d="m 86.331955,561.03349 0.843478,-6.93915 -0.504754,-0.0616 -0.843745,6.93893 0.505021,0.0618" /><path
       id="path1268"
       style="fill:#cfbae5;fill-opacity:1;fill-rule:nonzero;stroke:url(#linearGradient1330);stroke-width:0.0266502;stroke-opacity:1"
       d="m 85.454098,447.1341 c 0.954076,1.3557 0.627345,3.2332 -0.728083,4.18728 -1.355428,0.95381 -3.233466,0.62708 -4.187009,-0.72808 -0.953277,-1.35517 -0.627345,-3.23347 0.727816,-4.18755 1.354895,-0.95354 3.233999,-0.62707 4.187276,0.72835 z m 0.169495,-0.11912 c -1.019636,-1.44871 -3.027193,-1.79756 -4.47563,-0.77819 -1.44897,1.01964 -1.797821,3.0272 -0.778452,4.47563 1.019369,1.44897 3.02746,1.79809 4.476164,0.77872 1.448703,-1.01964 1.797554,-3.02719 0.777918,-4.47616" /><path
       id="path1270"
       style="fill:#cfbae5;fill-opacity:1;fill-rule:nonzero;stroke:url(#linearGradient1334);stroke-width:0.0266502;stroke-opacity:1"
       d="m 83.386577,446.63441 0.843479,-6.93917 -0.505021,-0.0616 -0.843745,6.93864 0.505287,0.0621" /><path
       id="path1276"
       style="fill:#cfbae5;fill-opacity:1;stroke:#cfbae5;stroke-width:0.308729;stroke-linecap:butt;stroke-linejoin:miter;stroke-miterlimit:4;stroke-dasharray:none;stroke-opacity:1"
       d="m 63.189981,462.12803 0.649492,80.5752" /><path
       id="path1280"
       style="fill:#cfbae5;fill-opacity:1;fill-rule:nonzero;stroke:none;stroke-width:0.0266502;stroke-opacity:1"
       d="m 80.454259,450.65299 c 0.988188,1.4042 2.927788,1.74106 4.331453,0.75314 1.40473,-0.98793 1.741589,-2.92753 0.753667,-4.33119 -0.988455,-1.40446 -2.927789,-1.74212 -4.33172,-0.75367 -1.404198,0.98819 -1.741322,2.92726 -0.7534,4.33172" /><path
       id="path1282"
       style="fill:#cfbae5;fill-opacity:1;fill-rule:nonzero;stroke:none;stroke-width:0.0266502;stroke-opacity:1"
       d="m 88.059153,434.3151 c 0.03678,-3.339 -2.6405,-6.07571 -5.978967,-6.11275 -3.339534,-0.0368 -6.075707,2.6405 -6.112485,5.97923 -0.03678,3.33927 2.6397,6.07598 5.978967,6.11222 3.338468,0.0371 6.075708,-2.6397 6.112485,-5.9787" /><path
       id="path1284"
       style="fill:#cfbae5;fill-opacity:1;fill-rule:nonzero;stroke:none;stroke-width:0.0266502;stroke-opacity:1"
       d="m 65.241752,444.2764 c -5.908131,0 -10.696928,4.78931 -10.696928,10.69659 0,5.90807 4.78901,10.69578 10.696928,10.69578 5.907278,0 10.695835,-4.78771 10.695835,-10.69578 0,-5.90728 -4.788557,-10.69659 -10.695835,-10.69659" /><path
       id="path1286"
       style="fill:#cfbae5;fill-opacity:1;fill-rule:nonzero;stroke:none;stroke-width:0.0266502;stroke-opacity:1"
       d="m 54.347959,546.45451 c -0.507819,5.88623 3.85231,11.06939 9.737628,11.57708 5.886145,0.50739 11.068218,-3.85199 11.575904,-9.73795 0.507686,-5.88569 -3.850791,-11.06808 -9.736935,-11.57604 -5.885318,-0.50768 -11.068671,3.85175 -11.576597,9.73691" /><path
       id="path1288"
       style="fill:#cfbae5;fill-opacity:1;fill-rule:nonzero;stroke:url(#linearGradient1356);stroke-width:0.0266502;stroke-opacity:1"
       d="m 84.404081,544.59913 c 2.694599,-1.76851 6.325153,-1.01431 8.093126,1.68002 1.767706,2.69514 1.014039,6.3254 -1.68056,8.09337 -2.694333,1.76795 -6.324887,1.01404 -8.093126,-1.68021 -1.767706,-2.69471 -1.014039,-6.32548 1.68056,-8.09318 z M 84.182885,544.262 c -2.880085,1.88977 -3.685986,5.77059 -1.796222,8.65089 1.889764,2.8804 5.771362,3.68625 8.65118,1.79627 2.880617,-1.89005 3.686252,-5.77032 1.795955,-8.65094 -1.889497,-2.87981 -5.770562,-3.68652 -8.650913,-1.79622" /><path
       id="path1290"
       style="fill:#cfbae5;fill-opacity:1;fill-rule:nonzero;stroke:none;stroke-width:0.0266502;stroke-opacity:1"
       d="m 83.399636,565.05204 c 0.988189,1.40394 2.927522,1.74111 4.331453,0.75319 1.404731,-0.98824 1.741856,-2.92757 0.753401,-4.33119 -0.988189,-1.40454 -2.927256,-1.74214 -4.331453,-0.75401 -1.404198,0.98846 -1.74159,2.92758 -0.753401,4.33201" /><path
       id="path1292"
       style="fill:#cfbae5;fill-opacity:1;fill-rule:nonzero;stroke:none;stroke-width:0.0266502;stroke-opacity:1"
       d="m 90.927245,554.54074 c 2.792139,-1.83199 3.570057,-5.58058 1.738391,-8.37218 -1.831933,-2.79214 -5.580014,-3.56953 -8.371887,-1.73786 -2.791872,1.83166 -3.57059,5.57951 -1.738391,8.37183 1.831667,2.7911 5.580014,3.57008 8.371887,1.73821" /></g></svg>
