<?xml version="1.0" encoding="UTF-8" standalone="no"?>
<!-- Generator: Adobe Illustrator 19.0.0, SVG Export Plug-In . SVG Version: 6.00 Build 0)  -->

<svg
   version="1.1"
   id="Capa_1"
   x="0px"
   y="0px"
   viewBox="0 0 100 100"
   xml:space="preserve"
   width="100"
   height="100"
   sodipodi:docname="user.svg"
   inkscape:version="1.1 (1:1.1+202105261517+ce6663b3b7)"
   xmlns:inkscape="http://www.inkscape.org/namespaces/inkscape"
   xmlns:sodipodi="http://sodipodi.sourceforge.net/DTD/sodipodi-0.dtd"
   xmlns:xlink="http://www.w3.org/1999/xlink"
   xmlns="http://www.w3.org/2000/svg"
   xmlns:svg="http://www.w3.org/2000/svg"
   xmlns:rdf="http://www.w3.org/1999/02/22-rdf-syntax-ns#"
   xmlns:cc="http://creativecommons.org/ns#"
   xmlns:dc="http://purl.org/dc/elements/1.1/"><sodipodi:namedview
   id="namedview115"
   pagecolor="#ffffff"
   bordercolor="#666666"
   borderopacity="1.0"
   inkscape:pageshadow="2"
   inkscape:pageopacity="0.0"
   inkscape:pagecheckerboard="0"
   showgrid="false"
   inkscape:zoom="2.715"
   inkscape:cx="38.121547"
   inkscape:cy="67.219153"
   inkscape:window-width="1366"
   inkscape:window-height="722"
   inkscape:window-x="0"
   inkscape:window-y="0"
   inkscape:window-maximized="1"
   inkscape:current-layer="Capa_1" /><metadata
   id="metadata61"><rdf:RDF><cc:Work
       rdf:about=""><dc:format>image/svg+xml</dc:format><dc:type
         rdf:resource="http://purl.org/dc/dcmitype/StillImage" /></cc:Work></rdf:RDF></metadata><defs
   id="defs59"><linearGradient
     y2="1683.181"
     y1="511.1134"
     x2="329.64392"
     x1="-1629.9066"
     gradientUnits="userSpaceOnUse"
     gradientTransform="matrix(0.57284547,0,0,0.67718004,1684.6821,-384.4171)"
     id="a"><stop
       id="stop1145"
       stop-color="#4f0754"
       offset="0" /><stop
       id="stop1147"
       stop-color="#360640"
       offset=".06853585" /><stop
       id="stop1149"
       stop-color="#2a0635"
       offset=".17678614" /><stop
       id="stop1151"
       stop-color="#20062d"
       offset=".43467355" /><stop
       id="stop1153"
       stop-color="#130522"
       offset=".64409029" /><stop
       id="stop1155"
       stop-color="#130522"
       offset=".84094781" /><stop
       id="stop1157"
       stop-color="#130522"
       offset="1" /></linearGradient><linearGradient
     gradientTransform="matrix(1,0,0,0.99999532,234.29107,25.915879)"
     x1="990.09003"
     y1="884.32001"
     x2="1140.2"
     gradientUnits="userSpaceOnUse"
     xlink:href="#a-3"
     y2="990.12"
     id="linearGradient14974" /><linearGradient
     gradientTransform="matrix(1.000004,0,0,1,-244.61987,135.26745)"
     x1="-418.64001"
     y1="673.20001"
     x2="-330.07001"
     gradientUnits="userSpaceOnUse"
     xlink:href="#a-3"
     y2="673.20001"
     id="linearGradient14972" /><linearGradient
     gradientTransform="translate(211.8473,12.958)"
     x1="146.63"
     y1="508.07999"
     x2="286.23001"
     gradientUnits="userSpaceOnUse"
     xlink:href="#a-3"
     y2="508.07999"
     id="linearGradient14970" /><linearGradient
     gradientTransform="matrix(0.70079,0,0,1.303,259.6833,-620.032)"
     x1="181.42999"
     y1="602.71997"
     x2="475.70999"
     gradientUnits="userSpaceOnUse"
     xlink:href="#a-3"
     y2="602.71997"
     id="linearGradient13253" /><linearGradient
     x1="175.72"
     y1="737.02002"
     gradientTransform="matrix(0.70079,0,0,0.58714,263.6833,-227.512)"
     x2="470"
     gradientUnits="userSpaceOnUse"
     xlink:href="#a-3"
     y2="737.02002"
     id="linearGradient13251" /><filter
     height="2.4057"
     x="-0.12454"
     width="1.2491"
     y="-0.70286"
     id="filter14335"><feGaussianBlur
       stdDeviation="15.270363"
       id="feGaussianBlur14337" /></filter><linearGradient
     id="linearGradient12828"><stop
       offset="0"
       style="stop-color:#484849"
       id="stop12830" /><stop
       offset="0"
       style="stop-color:#434344"
       id="stop12862" /><stop
       offset="1"
       style="stop-color:#8f8f90;stop-opacity:0"
       id="stop12832" /></linearGradient><radialGradient
     r="147.14"
     gradientTransform="matrix(1,0,0,0.17718,0,495.93)"
     cx="328.57001"
     cy="602.71997"
     gradientUnits="userSpaceOnUse"
     xlink:href="#linearGradient12828"
     id="radialGradient13249" /><linearGradient
     id="linearGradient747"><stop
       offset="0"
       style="stop-color:#caf0fd"
       id="stop748" /><stop
       offset="1"
       style="stop-color:#005eff"
       id="stop749" /></linearGradient><filter
     height="2.325"
     x="-0.14647"
     width="1.2929"
     y="-0.66248"
     id="filter14223"><feGaussianBlur
       stdDeviation="11.044599"
       id="feGaussianBlur14225" /></filter><linearGradient
     y2="737.02002"
     x2="470"
     y1="737.02002"
     x1="175.72"
     gradientTransform="matrix(0.70079,0,0,0.58714,-27.7427,-227.512)"
     gradientUnits="userSpaceOnUse"
     id="linearGradient887"
     xlink:href="#a-3" /><linearGradient
     gradientTransform="matrix(0.70079,0,0,1.303,-31.7427,-620.032)"
     y2="602.71997"
     x2="475.70999"
     y1="602.71997"
     x1="181.42999"
     gradientUnits="userSpaceOnUse"
     id="linearGradient889"
     xlink:href="#a-3" /><linearGradient
     gradientTransform="translate(-79.5787,12.958)"
     y2="508.07999"
     x2="286.23001"
     y1="508.07999"
     x1="146.63"
     gradientUnits="userSpaceOnUse"
     id="linearGradient891"
     xlink:href="#a-3" /><linearGradient
     gradientTransform="matrix(1.000004,0,0,1,91.889446,-32.98654)"
     y2="673.20001"
     x2="-330.07001"
     y1="673.20001"
     x1="-418.64001"
     gradientUnits="userSpaceOnUse"
     id="linearGradient893"
     xlink:href="#a-3" /><linearGradient
     gradientTransform="matrix(1,0,0,0.99999532,-57.134926,25.915879)"
     y2="990.12"
     x2="1140.2"
     y1="884.32001"
     x1="990.09003"
     gradientUnits="userSpaceOnUse"
     id="linearGradient895"
     xlink:href="#a-3" /><linearGradient
     y2="1683.181"
     y1="511.1134"
     x2="329.64392"
     x1="-1629.9066"
     gradientUnits="userSpaceOnUse"
     gradientTransform="matrix(0.57284547,0,0,0.67718004,1684.6821,-384.4171)"
     id="a-3"><stop
       id="stop2"
       stop-color="#4f0754"
       offset="0" /><stop
       id="stop4"
       stop-color="#360640"
       offset=".06853585" /><stop
       id="stop6"
       stop-color="#2a0635"
       offset=".17678614" /><stop
       id="stop8"
       stop-color="#20062d"
       offset=".43467355" /><stop
       id="stop10"
       stop-color="#130522"
       offset=".64409029" /><stop
       id="stop12"
       stop-color="#130522"
       offset=".84094781" /><stop
       id="stop14"
       stop-color="#130522"
       offset="1" /></linearGradient><linearGradient
     gradientUnits="userSpaceOnUse"
     y2="477.29724"
     x2="143.4082"
     y1="477.29724"
     x1="120.07502"
     id="linearGradient1684"
     xlink:href="#a-3" /><linearGradient
     gradientUnits="userSpaceOnUse"
     y2="532.13751"
     x2="151.49446"
     y1="532.13751"
     x1="104.60754"
     id="linearGradient1688"
     xlink:href="#a-3" /><linearGradient
     gradientUnits="userSpaceOnUse"
     y2="487.15302"
     x2="591.242"
     y1="487.15302"
     x1="437.06299"
     id="linearGradient1690"
     xlink:href="#a-3" /><linearGradient
     gradientUnits="userSpaceOnUse"
     y2="239.77318"
     x2="484.69922"
     y1="239.77318"
     x1="460.58911"
     id="linearGradient1692"
     xlink:href="#a-3" /><linearGradient
     gradientUnits="userSpaceOnUse"
     y2="229.96252"
     x2="567.41168"
     y1="229.96252"
     x1="544.07532"
     id="linearGradient1694"
     xlink:href="#a-3" /><linearGradient
     gradientUnits="userSpaceOnUse"
     y2="192.90948"
     x2="540.74982"
     y1="192.90948"
     x1="480.26712"
     id="linearGradient1696"
     xlink:href="#a-3" /><linearGradient
     gradientUnits="userSpaceOnUse"
     y2="77.09301"
     x2="489.181"
     y1="77.09301"
     x1="339.97501"
     id="linearGradient1698"
     xlink:href="#a-3" /><linearGradient
     gradientUnits="userSpaceOnUse"
     y2="48.035522"
     x2="154.4604"
     y1="48.035522"
     x1="131.12659"
     id="linearGradient1702"
     xlink:href="#a-3" /><linearGradient
     gradientUnits="userSpaceOnUse"
     y2="99.731468"
     x2="171.743"
     y1="99.731468"
     x1="126.36338"
     id="linearGradient1704"
     xlink:href="#a-3" /><linearGradient
     gradientUnits="userSpaceOnUse"
     y2="487.15399"
     x2="588.75201"
     y1="487.15399"
     x1="439.54599"
     id="linearGradient1712"
     xlink:href="#a-3" /><linearGradient
     gradientUnits="userSpaceOnUse"
     y2="454.37399"
     x2="106.593"
     y1="454.37399"
     x1="23.644501"
     id="linearGradient1720"
     xlink:href="#a-3" /><linearGradient
     gradientUnits="userSpaceOnUse"
     y2="454.37451"
     x2="105.253"
     y1="454.37451"
     x1="24.980499"
     id="linearGradient1736"
     xlink:href="#a-3" /><linearGradient
     gradientUnits="userSpaceOnUse"
     y2="532.13947"
     x2="150.7384"
     y1="532.13947"
     x1="105.36459"
     id="linearGradient1744"
     xlink:href="#a-3" /><linearGradient
     gradientUnits="userSpaceOnUse"
     y2="477.2962"
     x2="143.79121"
     y1="477.2962"
     x1="119.69061"
     id="linearGradient1760"
     xlink:href="#a-3" /><linearGradient
     gradientUnits="userSpaceOnUse"
     y2="264.45551"
     x2="333.48199"
     y1="264.45551"
     x1="92.222298"
     id="linearGradient1786"
     xlink:href="#a-3" /><linearGradient
     gradientUnits="userSpaceOnUse"
     y2="264.45401"
     x2="337.51001"
     y1="264.45401"
     x1="88.207802"
     id="linearGradient1794"
     xlink:href="#a-3" /><linearGradient
     gradientUnits="userSpaceOnUse"
     y2="359.74799"
     x2="465.09506"
     y1="359.74799"
     x1="134.31393"
     id="linearGradient1802"
     xlink:href="#a-3" /><linearGradient
     gradientUnits="userSpaceOnUse"
     y2="299.47351"
     x2="149.46255"
     y1="299.47351"
     x1="131.16345"
     id="linearGradient1804"
     xlink:href="#a-3" /><linearGradient
     gradientUnits="userSpaceOnUse"
     y2="474.25101"
     x2="486.35538"
     y1="474.25101"
     x1="79.290436"
     id="linearGradient1806"
     xlink:href="#a-3" /><linearGradient
     gradientUnits="userSpaceOnUse"
     y2="498.79953"
     x2="136.42467"
     y1="498.79953"
     x1="131.25233"
     id="linearGradient1816"
     xlink:href="#a-3" /><linearGradient
     gradientUnits="userSpaceOnUse"
     y2="500.57953"
     x2="119.03265"
     y1="500.57953"
     x1="81.571152"
     id="linearGradient1834"
     xlink:href="#a-3" /><linearGradient
     gradientUnits="userSpaceOnUse"
     y2="399.73151"
     x2="155.17599"
     y1="399.73151"
     x1="83.7789"
     id="linearGradient1844"
     xlink:href="#a-3" /><linearGradient
     gradientUnits="userSpaceOnUse"
     y2="276.353"
     x2="60.436207"
     y1="276.353"
     x1="56.840694"
     id="linearGradient1852"
     xlink:href="#a-3" /><linearGradient
     gradientUnits="userSpaceOnUse"
     y2="248.35945"
     x2="471.513"
     y1="248.35945"
     x1="206.873"
     id="linearGradient1860"
     xlink:href="#a-3" /><linearGradient
     gradientUnits="userSpaceOnUse"
     y2="151.24899"
     x2="500.70999"
     y1="151.24899"
     x1="450.961"
     id="linearGradient1862"
     xlink:href="#a-3" /><linearGradient
     gradientUnits="userSpaceOnUse"
     y2="148.0235"
     x2="141.72301"
     y1="148.0235"
     x1="88.1035"
     id="linearGradient1870"
     xlink:href="#a-3" /><linearGradient
     gradientUnits="userSpaceOnUse"
     y2="107.65263"
     x2="104.36789"
     y1="107.65263"
     x1="24.090885"
     id="linearGradient1878"
     xlink:href="#a-3" /><linearGradient
     gradientUnits="userSpaceOnUse"
     y2="106.383"
     x2="131.909"
     y1="106.383"
     x1="80.929298"
     id="linearGradient1886"
     xlink:href="#a-3" /><linearGradient
     gradientUnits="userSpaceOnUse"
     y2="69.534554"
     x2="147.42101"
     y1="69.534554"
     x1="142.36099"
     id="linearGradient1894"
     xlink:href="#a-3" /><linearGradient
     gradientUnits="userSpaceOnUse"
     y2="99.731468"
     x2="172.49005"
     y1="99.731468"
     x1="125.61664"
     id="linearGradient1902"
     xlink:href="#a-3" /><linearGradient
     gradientUnits="userSpaceOnUse"
     y2="142.1469"
     x2="501.08163"
     y1="142.1469"
     x1="158.38136"
     id="linearGradient1910"
     xlink:href="#a-3" /><linearGradient
     gradientUnits="userSpaceOnUse"
     y2="83.755402"
     x2="354.83218"
     y1="83.755402"
     x1="154.76781"
     id="linearGradient1918"
     xlink:href="#a-3" /><linearGradient
     gradientUnits="userSpaceOnUse"
     y2="143.9046"
     x2="472.9361"
     y1="143.9046"
     x1="142.50291"
     id="linearGradient1926"
     xlink:href="#a-3" /><linearGradient
     gradientUnits="userSpaceOnUse"
     y2="282.659"
     x2="481.98773"
     y1="282.659"
     x1="412.01529"
     id="linearGradient1934"
     xlink:href="#a-3" /><linearGradient
     gradientUnits="userSpaceOnUse"
     y2="77.092003"
     x2="491.67001"
     y1="77.092003"
     x1="337.492"
     id="linearGradient1942"
     xlink:href="#a-3" /><linearGradient
     gradientUnits="userSpaceOnUse"
     y2="192.908"
     x2="541.75598"
     y1="192.908"
     x1="479.25708"
     id="linearGradient1950"
     xlink:href="#a-3" /><linearGradient
     gradientUnits="userSpaceOnUse"
     y2="239.77399"
     x2="484.31042"
     y1="239.77399"
     x1="460.9794"
     id="linearGradient1958"
     xlink:href="#a-3" /><linearGradient
     gradientUnits="userSpaceOnUse"
     y2="527.25848"
     x2="468.03561"
     y1="527.25848"
     x1="128.03438"
     id="linearGradient1966"
     xlink:href="#a-3" /><filter
     id="filter14335-5"
     y="-0.70286"
     width="1.2491"
     x="-0.12454"
     height="2.4057"><feGaussianBlur
       id="feGaussianBlur14337-3"
       stdDeviation="15.270363" /></filter><radialGradient
     id="radialGradient13249-9"
     xlink:href="#linearGradient12828"
     gradientUnits="userSpaceOnUse"
     cy="602.71997"
     cx="328.57001"
     gradientTransform="matrix(1,0,0,0.17718,0,495.93)"
     r="147.14" /><filter
     id="filter14223-7"
     y="-0.66248"
     width="1.2929"
     x="-0.14647"
     height="2.325"><feGaussianBlur
       id="feGaussianBlur14225-0"
       stdDeviation="11.044599" /></filter></defs>




















<rect
   style="opacity:0;fill:#cfbae5;stroke-width:2;stroke-linecap:round;paint-order:stroke fill markers"
   id="rect949"
   width="100"
   height="100"
   x="0"
   y="0" /><g
   id="g938"
   transform="matrix(0.81840948,0,0,0.81840948,9.0795259,9.0343059)"><path
     id="path2"
     d="m 55.014698,10.28704 c -0.349473,0 -0.700619,-0.110363 -1.001602,-0.3344221 C 53.274018,9.399143 53.123527,8.3507185 53.678672,7.6133147 l 5.01637,-6.68849434 c 0.553472,-0.73907743 1.601894,-0.88789705 2.3393,-0.33442224 0.739079,0.55346778 0.88957,1.60189228 0.334425,2.33929618 l -5.01637,6.6884943 C 56.024661,10.056287 55.524696,10.28704 55.014698,10.28704 Z"
     style="fill:none;fill-opacity:1;stroke:#cfbae5;stroke-width:0.999997;stroke-miterlimit:4;stroke-dasharray:none;stroke-opacity:1" /><path
     id="path4"
     d="M 78.426098,8.6149148 H 21.573902 c -1.839336,0 -3.344247,1.5049102 -3.344247,3.3442502 v 83.606167 c 0,1.839333 1.504911,3.344251 3.344247,3.344251 h 56.852196 c 1.839335,0 3.344247,-1.504918 3.344247,-3.344251 V 11.959165 c 0,-1.83934 -1.504912,-3.3442502 -3.344247,-3.3442502 z M 50,23.664028 c -2.770708,0 -5.01637,-2.245662 -5.01637,-5.016369 0,-2.770714 2.245662,-5.016375 5.01637,-5.016375 2.770709,0 5.01637,2.245661 5.01637,5.016375 0,2.770707 -2.245661,5.016369 -5.01637,5.016369 z"
     style="fill:none;stroke:#cfbae5;stroke-width:1.67213;stroke-opacity:1" /><path
     id="path6"
     d="m 18.229655,68.811358 v 26.753974 c 0,1.839333 1.504911,3.344251 3.344247,3.344251 h 56.852196 c 1.839335,0 3.344247,-1.504918 3.344247,-3.344251 V 68.811358 Z"
     style="fill:none;fill-opacity:1;stroke-width:1.67213" /><g
     transform="matrix(1.6721234,0,0,1.6721234,0.67235808,0.2542953)"
     id="g20">
	
	
	<path
   id="path12"
   d="m 21.5,53 h -1 c -0.553,0 -1,0.447 -1,1 0,0.553 0.447,1 1,1 h 1 c 0.553,0 1,-0.447 1,-1 0,-0.553 -0.447,-1 -1,-1 z"
   style="fill:none;stroke:#cfbae5;stroke-opacity:1" />
	<path
   id="path14"
   d="m 27.5,53 h -2 c -0.553,0 -1,0.447 -1,1 0,0.553 0.447,1 1,1 h 2 c 0.553,0 1,-0.447 1,-1 0,-0.553 -0.447,-1 -1,-1 z"
   style="fill:none;stroke:#cfbae5;stroke-opacity:1" />
	<path
   id="path16"
   d="m 32.5,53 h -1 c -0.553,0 -1,0.447 -1,1 0,0.553 0.447,1 1,1 h 1 c 0.553,0 1,-0.447 1,-1 0,-0.553 -0.447,-1 -1,-1 z"
   style="fill:none;stroke:#cfbae5;stroke-opacity:1" />
	<path
   id="path18"
   d="m 38.5,53 h -2 c -0.553,0 -1,0.447 -1,1 0,0.553 0.447,1 1,1 h 2 c 0.553,0 1,-0.447 1,-1 0,-0.553 -0.447,-1 -1,-1 z"
   style="fill:none;stroke:#cfbae5;stroke-opacity:1" />
</g><path
     id="path22"
     d="M 69.598606,80.643803 C 69.53977,77.998487 68.0319,75.59504 65.656779,74.407479 L 57.44845,70.215066 c -0.560004,-0.285452 -0.913005,-0.862888 -0.913005,-1.492621 v -2.512399 c 4.212026,-1.815115 6.632905,-5.340751 7.811749,-9.751066 1.775892,-0.549112 3.083298,-2.192084 3.083298,-4.142298 v -2.179009 c 0,-1.669121 -0.960943,-3.109447 -2.348972,-3.841594 -0.960943,-8.195254 -6.37796,-11.511705 -15.083103,-11.511705 -0.411832,0 -0.817128,0.01525 -1.213708,0.04794 -2.959094,0.235332 -5.953054,-0.320315 -8.415333,-1.980721 -1.024135,-0.688566 -1.884844,-1.422892 -2.490608,-2.192083 -0.276735,-0.350821 -0.828025,-0.126379 -0.777906,0.315958 0.08715,0.762653 0.2179,1.651688 0.409653,2.623526 0.719074,3.617156 0.289808,3.089835 -1.109116,6.502164 -0.773548,1.887022 -1.272541,3.981051 -1.503516,6.199281 -1.377134,0.738685 -2.33154,2.174653 -2.33154,3.837237 v 2.179008 c 0,1.950215 1.307405,3.593186 3.083297,4.144477 1.178845,4.408136 3.597545,7.935951 7.81175,9.751066 v 2.494967 c 0,0.638448 -0.361717,1.220244 -0.934795,1.503515 l -8.413156,4.142297 c -2.296676,1.25293 -3.726106,3.660735 -3.726106,6.275546 v 0.01525 z"
     style="fill:none;fill-opacity:1;stroke:#cfbae5;stroke-width:2.17902;stroke-opacity:1" /><path
     id="path24"
     d="m 50.001672,20.319778 c -0.613669,0 -1.203929,-0.33777 -1.498222,-0.924681 L 40.142833,2.6738587 C 39.729818,1.8478339 40.064242,0.84288659 40.890271,0.42987067 41.7163,0.02020184 42.721247,0.35128401 43.134262,1.1773088 l 8.360617,16.7212392 c 0.413013,0.826024 0.07859,1.830972 -0.74744,2.243988 -0.239113,0.12039 -0.494948,0.177242 -0.745767,0.177242 z"
     style="fill:none;fill-opacity:1;stroke:#cfbae5;stroke-width:0.999997;stroke-miterlimit:4;stroke-dasharray:none;stroke-opacity:1" /></g><g
   transform="matrix(0.07031734,0,0,0.07031734,78.359954,94.76086)"
   id="g26">
</g><g
   transform="matrix(0.07031734,0,0,0.07031734,78.359954,94.76086)"
   id="g28">
</g><g
   transform="matrix(0.07031734,0,0,0.07031734,78.359954,94.76086)"
   id="g30">
</g><g
   transform="matrix(0.07031734,0,0,0.07031734,78.359954,94.76086)"
   id="g32">
</g><g
   transform="matrix(0.07031734,0,0,0.07031734,78.359954,94.76086)"
   id="g34">
</g><g
   transform="matrix(0.07031734,0,0,0.07031734,78.359954,94.76086)"
   id="g36">
</g><g
   transform="matrix(0.07031734,0,0,0.07031734,78.359954,94.76086)"
   id="g38">
</g><g
   transform="matrix(0.07031734,0,0,0.07031734,78.359954,94.76086)"
   id="g40">
</g><g
   transform="matrix(0.07031734,0,0,0.07031734,78.359954,94.76086)"
   id="g42">
</g><g
   transform="matrix(0.07031734,0,0,0.07031734,78.359954,94.76086)"
   id="g44">
</g><g
   transform="matrix(0.07031734,0,0,0.07031734,78.359954,94.76086)"
   id="g46">
</g><g
   transform="matrix(0.07031734,0,0,0.07031734,78.359954,94.76086)"
   id="g48">
</g><g
   transform="matrix(0.07031734,0,0,0.07031734,78.359954,94.76086)"
   id="g50">
</g><g
   transform="matrix(0.07031734,0,0,0.07031734,78.359954,94.76086)"
   id="g52">
</g><g
   transform="matrix(0.07031734,0,0,0.07031734,78.359954,94.76086)"
   id="g54">
</g>
</svg>
