<?xml version="1.0" encoding="UTF-8" standalone="no"?>
<!-- Generator: Adobe Illustrator 19.0.0, SVG Export Plug-In . SVG Version: 6.00 Build 0)  -->

<svg
   xmlns:dc="http://purl.org/dc/elements/1.1/"
   xmlns:cc="http://creativecommons.org/ns#"
   xmlns:rdf="http://www.w3.org/1999/02/22-rdf-syntax-ns#"
   xmlns:svg="http://www.w3.org/2000/svg"
   xmlns="http://www.w3.org/2000/svg"
   xmlns:xlink="http://www.w3.org/1999/xlink"
   xmlns:sodipodi="http://sodipodi.sourceforge.net/DTD/sodipodi-0.dtd"
   xmlns:inkscape="http://www.inkscape.org/namespaces/inkscape"
   version="1.1"
   id="Capa_1"
   x="0px"
   y="0px"
   viewBox="0 0 2740.7024 2315.4209"
   xml:space="preserve"
   sodipodi:docname="pin-code.svg"
   width="2740.7024"
   height="2315.4209"
   inkscape:version="0.92.5 (2060ec1f9f, 2020-04-08)"
   inkscape:export-filename="/home/superuser/projects/x7/Mockups/pin-code.png"
   inkscape:export-xdpi="10.505468"
   inkscape:export-ydpi="10.505468"><metadata
   id="metadata53"><rdf:RDF><cc:Work
       rdf:about=""><dc:format>image/svg+xml</dc:format><dc:type
         rdf:resource="http://purl.org/dc/dcmitype/StillImage" /><dc:title /></cc:Work></rdf:RDF></metadata><defs
   id="defs51"><linearGradient
     gradientTransform="matrix(1,0,0,0.99999532,234.29107,25.915879)"
     x1="990.09003"
     y1="884.32001"
     x2="1140.2"
     gradientUnits="userSpaceOnUse"
     xlink:href="#a"
     y2="990.12"
     id="linearGradient14974" /><linearGradient
     gradientTransform="matrix(1.000004,0,0,1,-244.61987,135.26745)"
     x1="-418.64001"
     y1="673.20001"
     x2="-330.07001"
     gradientUnits="userSpaceOnUse"
     xlink:href="#a"
     y2="673.20001"
     id="linearGradient14972" /><linearGradient
     gradientTransform="translate(211.8473,12.958)"
     x1="146.63"
     y1="508.07999"
     x2="286.23001"
     gradientUnits="userSpaceOnUse"
     xlink:href="#a"
     y2="508.07999"
     id="linearGradient14970" /><linearGradient
     gradientTransform="matrix(0.70079,0,0,1.303,259.6833,-620.032)"
     x1="181.42999"
     y1="602.71997"
     x2="475.70999"
     gradientUnits="userSpaceOnUse"
     xlink:href="#a"
     y2="602.71997"
     id="linearGradient13253" /><linearGradient
     x1="175.72"
     y1="737.02002"
     gradientTransform="matrix(0.70079,0,0,0.58714,263.6833,-227.512)"
     x2="470"
     gradientUnits="userSpaceOnUse"
     xlink:href="#a"
     y2="737.02002"
     id="linearGradient13251" /><filter
     height="2.4057"
     x="-0.12454"
     width="1.2491"
     y="-0.70286"
     id="filter14335"><feGaussianBlur
       stdDeviation="15.270363"
       id="feGaussianBlur14337" /></filter><linearGradient
     id="linearGradient12828"><stop
       offset="0"
       style="stop-color:#484849"
       id="stop12830" /><stop
       offset="0"
       style="stop-color:#434344"
       id="stop12862" /><stop
       offset="1"
       style="stop-color:#8f8f90;stop-opacity:0"
       id="stop12832" /></linearGradient><radialGradient
     r="147.14"
     gradientTransform="matrix(1,0,0,0.17718,0,495.93)"
     cx="328.57001"
     cy="602.71997"
     gradientUnits="userSpaceOnUse"
     xlink:href="#linearGradient12828"
     id="radialGradient13249" /><linearGradient
     id="linearGradient747"><stop
       offset="0"
       style="stop-color:#caf0fd"
       id="stop748" /><stop
       offset="1"
       style="stop-color:#005eff"
       id="stop749" /></linearGradient><filter
     height="2.325"
     x="-0.14647"
     width="1.2929"
     y="-0.66248"
     id="filter14223"><feGaussianBlur
       stdDeviation="11.044599"
       id="feGaussianBlur14225" /></filter><linearGradient
     y2="737.02002"
     x2="470"
     y1="737.02002"
     x1="175.72"
     gradientTransform="matrix(0.70079,0,0,0.58714,-27.7427,-227.512)"
     gradientUnits="userSpaceOnUse"
     id="linearGradient887"
     xlink:href="#a" /><linearGradient
     gradientTransform="matrix(0.70079,0,0,1.303,-31.7427,-620.032)"
     y2="602.71997"
     x2="475.70999"
     y1="602.71997"
     x1="181.42999"
     gradientUnits="userSpaceOnUse"
     id="linearGradient889"
     xlink:href="#a" /><linearGradient
     gradientTransform="translate(-79.5787,12.958)"
     y2="508.07999"
     x2="286.23001"
     y1="508.07999"
     x1="146.63"
     gradientUnits="userSpaceOnUse"
     id="linearGradient891"
     xlink:href="#a" /><linearGradient
     gradientTransform="matrix(1.000004,0,0,1,91.889446,-32.98654)"
     y2="673.20001"
     x2="-330.07001"
     y1="673.20001"
     x1="-418.64001"
     gradientUnits="userSpaceOnUse"
     id="linearGradient893"
     xlink:href="#a" /><linearGradient
     gradientTransform="matrix(1,0,0,0.99999532,-57.134926,25.915879)"
     y2="990.12"
     x2="1140.2"
     y1="884.32001"
     x1="990.09003"
     gradientUnits="userSpaceOnUse"
     id="linearGradient895"
     xlink:href="#a" /><linearGradient
     y2="1683.181"
     y1="511.1134"
     x2="329.64392"
     x1="-1629.9066"
     gradientUnits="userSpaceOnUse"
     gradientTransform="matrix(0.57284547,0,0,0.67718004,1684.6821,-384.4171)"
     id="a"><stop
       id="stop2"
       stop-color="#4f0754"
       offset="0" /><stop
       id="stop4"
       stop-color="#360640"
       offset=".06853585" /><stop
       id="stop6"
       stop-color="#2a0635"
       offset=".17678614" /><stop
       id="stop8"
       stop-color="#20062d"
       offset=".43467355" /><stop
       id="stop10"
       stop-color="#130522"
       offset=".64409029" /><stop
       id="stop12"
       stop-color="#130522"
       offset=".84094781" /><stop
       id="stop14"
       stop-color="#130522"
       offset="1" /></linearGradient><linearGradient
     gradientUnits="userSpaceOnUse"
     y2="477.29724"
     x2="143.4082"
     y1="477.29724"
     x1="120.07502"
     id="linearGradient1684"
     xlink:href="#a" /><linearGradient
     gradientUnits="userSpaceOnUse"
     y2="532.13751"
     x2="151.49446"
     y1="532.13751"
     x1="104.60754"
     id="linearGradient1688"
     xlink:href="#a" /><linearGradient
     gradientUnits="userSpaceOnUse"
     y2="487.15302"
     x2="591.242"
     y1="487.15302"
     x1="437.06299"
     id="linearGradient1690"
     xlink:href="#a" /><linearGradient
     gradientUnits="userSpaceOnUse"
     y2="239.77318"
     x2="484.69922"
     y1="239.77318"
     x1="460.58911"
     id="linearGradient1692"
     xlink:href="#a" /><linearGradient
     gradientUnits="userSpaceOnUse"
     y2="229.96252"
     x2="567.41168"
     y1="229.96252"
     x1="544.07532"
     id="linearGradient1694"
     xlink:href="#a" /><linearGradient
     gradientUnits="userSpaceOnUse"
     y2="192.90948"
     x2="540.74982"
     y1="192.90948"
     x1="480.26712"
     id="linearGradient1696"
     xlink:href="#a" /><linearGradient
     gradientUnits="userSpaceOnUse"
     y2="77.09301"
     x2="489.181"
     y1="77.09301"
     x1="339.97501"
     id="linearGradient1698"
     xlink:href="#a" /><linearGradient
     gradientUnits="userSpaceOnUse"
     y2="48.035522"
     x2="154.4604"
     y1="48.035522"
     x1="131.12659"
     id="linearGradient1702"
     xlink:href="#a" /><linearGradient
     gradientUnits="userSpaceOnUse"
     y2="99.731468"
     x2="171.743"
     y1="99.731468"
     x1="126.36338"
     id="linearGradient1704"
     xlink:href="#a" /><linearGradient
     gradientUnits="userSpaceOnUse"
     y2="487.15399"
     x2="588.75201"
     y1="487.15399"
     x1="439.54599"
     id="linearGradient1712"
     xlink:href="#a" /><linearGradient
     gradientUnits="userSpaceOnUse"
     y2="454.37399"
     x2="106.593"
     y1="454.37399"
     x1="23.644501"
     id="linearGradient1720"
     xlink:href="#a" /><linearGradient
     gradientUnits="userSpaceOnUse"
     y2="454.37451"
     x2="105.253"
     y1="454.37451"
     x1="24.980499"
     id="linearGradient1736"
     xlink:href="#a" /><linearGradient
     gradientUnits="userSpaceOnUse"
     y2="532.13947"
     x2="150.7384"
     y1="532.13947"
     x1="105.36459"
     id="linearGradient1744"
     xlink:href="#a" /><linearGradient
     gradientUnits="userSpaceOnUse"
     y2="477.2962"
     x2="143.79121"
     y1="477.2962"
     x1="119.69061"
     id="linearGradient1760"
     xlink:href="#a" /><linearGradient
     gradientUnits="userSpaceOnUse"
     y2="264.45551"
     x2="333.48199"
     y1="264.45551"
     x1="92.222298"
     id="linearGradient1786"
     xlink:href="#a" /><linearGradient
     gradientUnits="userSpaceOnUse"
     y2="264.45401"
     x2="337.51001"
     y1="264.45401"
     x1="88.207802"
     id="linearGradient1794"
     xlink:href="#a" /><linearGradient
     gradientUnits="userSpaceOnUse"
     y2="359.74799"
     x2="465.09506"
     y1="359.74799"
     x1="134.31393"
     id="linearGradient1802"
     xlink:href="#a" /><linearGradient
     gradientUnits="userSpaceOnUse"
     y2="299.47351"
     x2="149.46255"
     y1="299.47351"
     x1="131.16345"
     id="linearGradient1804"
     xlink:href="#a" /><linearGradient
     gradientUnits="userSpaceOnUse"
     y2="474.25101"
     x2="486.35538"
     y1="474.25101"
     x1="79.290436"
     id="linearGradient1806"
     xlink:href="#a" /><linearGradient
     gradientUnits="userSpaceOnUse"
     y2="498.79953"
     x2="136.42467"
     y1="498.79953"
     x1="131.25233"
     id="linearGradient1816"
     xlink:href="#a" /><linearGradient
     gradientUnits="userSpaceOnUse"
     y2="500.57953"
     x2="119.03265"
     y1="500.57953"
     x1="81.571152"
     id="linearGradient1834"
     xlink:href="#a" /><linearGradient
     gradientUnits="userSpaceOnUse"
     y2="399.73151"
     x2="155.17599"
     y1="399.73151"
     x1="83.7789"
     id="linearGradient1844"
     xlink:href="#a" /><linearGradient
     gradientUnits="userSpaceOnUse"
     y2="276.353"
     x2="60.436207"
     y1="276.353"
     x1="56.840694"
     id="linearGradient1852"
     xlink:href="#a" /><linearGradient
     gradientUnits="userSpaceOnUse"
     y2="248.35945"
     x2="471.513"
     y1="248.35945"
     x1="206.873"
     id="linearGradient1860"
     xlink:href="#a" /><linearGradient
     gradientUnits="userSpaceOnUse"
     y2="151.24899"
     x2="500.70999"
     y1="151.24899"
     x1="450.961"
     id="linearGradient1862"
     xlink:href="#a" /><linearGradient
     gradientUnits="userSpaceOnUse"
     y2="148.0235"
     x2="141.72301"
     y1="148.0235"
     x1="88.1035"
     id="linearGradient1870"
     xlink:href="#a" /><linearGradient
     gradientUnits="userSpaceOnUse"
     y2="107.65263"
     x2="104.36789"
     y1="107.65263"
     x1="24.090885"
     id="linearGradient1878"
     xlink:href="#a" /><linearGradient
     gradientUnits="userSpaceOnUse"
     y2="106.383"
     x2="131.909"
     y1="106.383"
     x1="80.929298"
     id="linearGradient1886"
     xlink:href="#a" /><linearGradient
     gradientUnits="userSpaceOnUse"
     y2="69.534554"
     x2="147.42101"
     y1="69.534554"
     x1="142.36099"
     id="linearGradient1894"
     xlink:href="#a" /><linearGradient
     gradientUnits="userSpaceOnUse"
     y2="99.731468"
     x2="172.49005"
     y1="99.731468"
     x1="125.61664"
     id="linearGradient1902"
     xlink:href="#a" /><linearGradient
     gradientUnits="userSpaceOnUse"
     y2="142.1469"
     x2="501.08163"
     y1="142.1469"
     x1="158.38136"
     id="linearGradient1910"
     xlink:href="#a" /><linearGradient
     gradientUnits="userSpaceOnUse"
     y2="83.755402"
     x2="354.83218"
     y1="83.755402"
     x1="154.76781"
     id="linearGradient1918"
     xlink:href="#a" /><linearGradient
     gradientUnits="userSpaceOnUse"
     y2="143.9046"
     x2="472.9361"
     y1="143.9046"
     x1="142.50291"
     id="linearGradient1926"
     xlink:href="#a" /><linearGradient
     gradientUnits="userSpaceOnUse"
     y2="282.659"
     x2="481.98773"
     y1="282.659"
     x1="412.01529"
     id="linearGradient1934"
     xlink:href="#a" /><linearGradient
     gradientUnits="userSpaceOnUse"
     y2="77.092003"
     x2="491.67001"
     y1="77.092003"
     x1="337.492"
     id="linearGradient1942"
     xlink:href="#a" /><linearGradient
     gradientUnits="userSpaceOnUse"
     y2="192.908"
     x2="541.75598"
     y1="192.908"
     x1="479.25708"
     id="linearGradient1950"
     xlink:href="#a" /><linearGradient
     gradientUnits="userSpaceOnUse"
     y2="239.77399"
     x2="484.31042"
     y1="239.77399"
     x1="460.9794"
     id="linearGradient1958"
     xlink:href="#a" /><linearGradient
     gradientUnits="userSpaceOnUse"
     y2="527.25848"
     x2="468.03561"
     y1="527.25848"
     x1="128.03438"
     id="linearGradient1966"
     xlink:href="#a" /><filter
     id="filter14335-5"
     y="-0.70286"
     width="1.2491"
     x="-0.12454"
     height="2.4057"><feGaussianBlur
       id="feGaussianBlur14337-3"
       stdDeviation="15.270363" /></filter><radialGradient
     id="radialGradient13249-9"
     xlink:href="#linearGradient12828"
     gradientUnits="userSpaceOnUse"
     cy="602.71997"
     cx="328.57001"
     gradientTransform="matrix(1,0,0,0.17718,0,495.93)"
     r="147.14" /><filter
     id="filter14223-7"
     y="-0.66248"
     width="1.2929"
     x="-0.14647"
     height="2.325"><feGaussianBlur
       id="feGaussianBlur14225-0"
       stdDeviation="11.044599" /></filter><linearGradient
     inkscape:collect="always"
     xlink:href="#a"
     id="linearGradient1363"
     x1="-1690.379"
     y1="-1553.1187"
     x2="-981.57672"
     y2="-1553.1187"
     gradientUnits="userSpaceOnUse" /><linearGradient
     inkscape:collect="always"
     xlink:href="#a"
     id="linearGradient1365"
     x1="-2682.7024"
     y1="-419.03488"
     x2="58"
     y2="-419.03488"
     gradientUnits="userSpaceOnUse" /><linearGradient
     inkscape:collect="always"
     xlink:href="#linearGradient747"
     id="linearGradient1373"
     x1="41.999157"
     y1="43"
     x2="52.000641"
     y2="43"
     gradientUnits="userSpaceOnUse" /><linearGradient
     inkscape:collect="always"
     xlink:href="#linearGradient747"
     id="linearGradient1375"
     x1="29.999157"
     y1="43"
     x2="39.999844"
     y2="43"
     gradientUnits="userSpaceOnUse" /><linearGradient
     inkscape:collect="always"
     xlink:href="#linearGradient747"
     id="linearGradient1377"
     x1="17.999157"
     y1="43"
     x2="27.999844"
     y2="43"
     gradientUnits="userSpaceOnUse" /><linearGradient
     inkscape:collect="always"
     xlink:href="#linearGradient747"
     id="linearGradient1379"
     x1="5.999156"
     y1="43"
     x2="15.999844"
     y2="43"
     gradientUnits="userSpaceOnUse" /><linearGradient
     inkscape:collect="always"
     xlink:href="#linearGradient747"
     id="linearGradient1387"
     x1="-1595.8721"
     y1="-2049.2803"
     x2="-1076.0837"
     y2="-2049.2803"
     gradientUnits="userSpaceOnUse" /></defs><sodipodi:namedview
   pagecolor="#ffffff"
   bordercolor="#666666"
   borderopacity="1"
   objecttolerance="10"
   gridtolerance="10"
   guidetolerance="10"
   inkscape:pageopacity="0"
   inkscape:pageshadow="2"
   inkscape:window-width="1366"
   inkscape:window-height="722"
   id="namedview49"
   showgrid="false"
   fit-margin-top="0"
   fit-margin-left="0"
   fit-margin-right="0"
   fit-margin-bottom="0"
   inkscape:pagecheckerboard="true"
   inkscape:zoom="0.072244254"
   inkscape:cx="-481.42112"
   inkscape:cy="-568.55079"
   inkscape:window-x="0"
   inkscape:window-y="0"
   inkscape:window-maximized="1"
   inkscape:current-layer="Capa_1" />



<g
   id="g1399"
   transform="translate(2682.7023,2261.9209)"
   inkscape:export-xdpi="28.022015"
   inkscape:export-ydpi="28.022015"><rect
     id="rect2"
     height="567.04187"
     width="708.80231"
     style="fill:url(#linearGradient1363);fill-opacity:1;stroke-width:47.25349045"
     y="-1836.6395"
     x="-1690.379" /><path
     inkscape:connector-curvature="0"
     id="path4"
     d="m -1076.0837,-1836.6395 h -94.507 v -165.3873 c 0,-91.1992 -74.188,-165.3872 -165.3872,-165.3872 -91.1993,0 -165.3872,74.188 -165.3872,165.3872 v 165.3873 h -94.507 v -165.3873 c 0,-143.3198 116.6216,-259.8941 259.8942,-259.8941 143.2726,0 259.8942,116.5743 259.8942,259.8941 z"
     style="fill:url(#linearGradient1387);fill-opacity:1;stroke-width:47.25349045" /><path
     inkscape:connector-curvature="0"
     id="path6"
     d="M -414.53489,53.5 H -2210.1675 c -259.8941,0 -472.5348,-212.6407 -472.5348,-472.53489 v 0 c 0,-259.89419 212.6407,-472.53488 472.5348,-472.53488 H -414.53489 C -154.6407,-891.56977 58,-678.92908 58,-419.03489 v 0 C 58,-159.1407 -154.6407,53.5 -414.53489,53.5 Z"
     style="fill:url(#linearGradient1365);fill-opacity:1;stroke-width:47.25349045" /><g
     transform="matrix(47.253489,0,0,47.253489,-2682.7023,-2474.5616)"
     id="g16">
	<path
   inkscape:connector-curvature="0"
   id="path8"
   d="M 14.553,40.605 12,41.882 V 38.5 c 0,-0.552 -0.447,-1 -1,-1 -0.553,0 -1,0.448 -1,1 v 3.382 L 7.447,40.606 C 6.954,40.358 6.353,40.56 6.105,41.053 5.858,41.547 6.058,42.148 6.552,42.395 L 9.48,43.859 7.2,46.9 c -0.332,0.442 -0.242,1.069 0.2,1.4 0.18,0.135 0.39,0.2 0.599,0.2 0.305,0 0.604,-0.138 0.801,-0.4 L 11,45.166 13.2,48.1 c 0.196,0.262 0.496,0.4 0.801,0.4 0.209,0 0.419,-0.065 0.599,-0.2 0.442,-0.331 0.532,-0.958 0.2,-1.4 l -2.281,-3.041 2.928,-1.464 c 0.494,-0.247 0.694,-0.848 0.447,-1.342 -0.248,-0.494 -0.847,-0.695 -1.341,-0.448 z"
   style="fill:url(#linearGradient1379);fill-opacity:1" />
	<path
   inkscape:connector-curvature="0"
   id="path10"
   d="M 26.553,40.605 24,41.882 V 38.5 c 0,-0.552 -0.447,-1 -1,-1 -0.553,0 -1,0.448 -1,1 v 3.382 l -2.553,-1.276 c -0.493,-0.248 -1.094,-0.046 -1.342,0.447 -0.247,0.494 -0.047,1.095 0.447,1.342 L 21.48,43.859 19.2,46.9 c -0.332,0.442 -0.242,1.069 0.2,1.4 0.18,0.135 0.39,0.2 0.599,0.2 0.305,0 0.604,-0.138 0.801,-0.4 L 23,45.166 25.2,48.1 c 0.196,0.262 0.496,0.4 0.801,0.4 0.209,0 0.419,-0.065 0.599,-0.2 0.442,-0.331 0.532,-0.958 0.2,-1.4 l -2.281,-3.041 2.928,-1.464 c 0.494,-0.247 0.694,-0.848 0.447,-1.342 -0.247,-0.494 -0.847,-0.695 -1.341,-0.448 z"
   style="fill:url(#linearGradient1377);fill-opacity:1" />
	<path
   inkscape:connector-curvature="0"
   id="path12"
   d="M 38.553,40.605 36,41.882 V 38.5 c 0,-0.552 -0.447,-1 -1,-1 -0.553,0 -1,0.448 -1,1 v 3.382 l -2.553,-1.276 c -0.495,-0.248 -1.094,-0.046 -1.342,0.447 -0.247,0.494 -0.047,1.095 0.447,1.342 L 33.48,43.859 31.2,46.9 c -0.332,0.442 -0.242,1.069 0.2,1.4 0.18,0.135 0.39,0.2 0.599,0.2 0.305,0 0.604,-0.138 0.801,-0.4 L 35,45.166 37.2,48.1 c 0.196,0.262 0.496,0.4 0.801,0.4 0.209,0 0.419,-0.065 0.599,-0.2 0.442,-0.331 0.532,-0.958 0.2,-1.4 l -2.281,-3.041 2.928,-1.464 c 0.494,-0.247 0.694,-0.848 0.447,-1.342 -0.248,-0.494 -0.847,-0.695 -1.341,-0.448 z"
   style="fill:url(#linearGradient1375);fill-opacity:1" />
	<path
   inkscape:connector-curvature="0"
   id="path14"
   d="M 51.895,41.053 C 51.647,40.559 51.047,40.358 50.553,40.606 L 48,41.882 V 38.5 c 0,-0.552 -0.447,-1 -1,-1 -0.553,0 -1,0.448 -1,1 v 3.382 l -2.553,-1.276 c -0.495,-0.248 -1.094,-0.046 -1.342,0.447 -0.247,0.494 -0.047,1.095 0.447,1.342 L 45.48,43.859 43.2,46.9 c -0.332,0.442 -0.242,1.069 0.2,1.4 0.18,0.135 0.39,0.2 0.599,0.2 0.305,0 0.604,-0.138 0.801,-0.4 L 47,45.166 49.2,48.1 c 0.196,0.262 0.496,0.4 0.801,0.4 0.209,0 0.419,-0.065 0.599,-0.2 0.442,-0.331 0.532,-0.958 0.2,-1.4 l -2.281,-3.041 2.928,-1.464 c 0.494,-0.248 0.695,-0.848 0.448,-1.342 z"
   style="fill:url(#linearGradient1373);fill-opacity:1" />
</g></g>















</svg>